<?xml version="1.0" encoding="UTF-8"?>
<!DOCTYPE svg PUBLIC "-//W3C//DTD SVG 1.1//EN" "http://www.w3.org/Graphics/SVG/1.1/DTD/svg11.dtd">
<!-- Creator: CorelDRAW -->
<svg xmlns="http://www.w3.org/2000/svg" xml:space="preserve" width="297mm" height="210mm" version="1.1" style="shape-rendering:geometricPrecision; text-rendering:geometricPrecision; image-rendering:optimizeQuality; fill-rule:evenodd; clip-rule:evenodd"
viewBox="0 0 29700 21000"
 xmlns:xlink="http://www.w3.org/1999/xlink">
 <defs>
  <style type="text/css">
   <![CDATA[
    .str2 {stroke:black;stroke-width:10;stroke-opacity:0.501961}
    .str3 {stroke:black;stroke-width:50}
    .str5 {stroke:#434242;stroke-width:10}
    .str1 {stroke:black;stroke-width:10}
    .str0 {stroke:black;stroke-width:10}
    .str6 {stroke:#2B2A29;stroke-width:7.62}
    .str4 {stroke:black;stroke-width:7.62}
    .fil10 {fill:none}
    .fil4 {fill:#FEFEFE}
    .fil12 {fill:#D9DADA}
    .fil1 {fill:#F4ECF0}
    .fil3 {fill:#E8F0D8}
    .fil0 {fill:#D2DBF0}
    .fil2 {fill:lemonchiffon}
    .fil8 {fill:#FEFEFE;fill-rule:nonzero}
    .fil7 {fill:#D9DADA;fill-rule:nonzero}
    .fil11 {fill:#434242;fill-rule:nonzero}
    .fil9 {fill:#2B2A29;fill-rule:nonzero}
    .fil6 {fill:black;fill-rule:nonzero}
    .fil5 {fill:#FEFEFE;fill-rule:nonzero;fill-opacity:0.501961}
   ]]>
  </style>
 </defs>
 <g id="Plan_x0020_1">
  <metadata id="CorelCorpID_0Corel-Layer"/>
  <path class="fil0 str0" d="M11821 11856c-14,-2 -29,-3 -46,-3 -43,0 -104,11 -142,-10 -24,-13 -27,-31 -58,-35 -32,-5 -68,5 -102,2 -91,0 -350,-12 -395,-94 -4,-8 -78,-20 -94,-28 -49,-23 -56,82 -120,56 -56,-22 -107,-96 -152,-136 -92,-82 -144,-9 -93,-161 -114,0 -126,96 -222,123 -104,75 -162,10 -261,39 -20,6 -43,39 -44,37 -4,0 -92,-73 -116,-81 -39,-14 -147,-22 -174,11 -24,30 -35,28 -73,28 0,0 -3,-3 -4,-3 0,-108 26,-98 -55,-187l-192 -211c-50,-14 -63,-18 -61,-71 2,-35 44,-25 39,-48 -3,-11 -15,-40 -28,-41 -16,-1 -73,10 -73,-14 0,-33 -56,-39 -33,-53 10,-6 36,-24 45,-15 9,9 51,47 42,8 -7,-28 -23,-51 -33,-77 -14,-40 -58,-30 -92,-37 -64,-14 -13,-54 -41,-84 -26,-41 -105,-61 -107,-105 -1,-22 -133,-40 -158,-47 -25,-6 -39,65 -62,78 -22,13 -36,9 -47,38 -14,39 33,140 33,189 0,39 28,53 47,79 -44,11 -129,36 -173,36 -64,0 -123,-12 -181,19 -12,6 -69,65 -74,49 -18,-60 -57,-73 -96,-117 -68,-45 -125,-62 -207,-56 -75,5 -98,2 -98,-83 0,-25 -64,-10 -78,-30 -26,-36 -19,-82 -52,-122 -9,-11 -50,-49 -53,-58 -13,17 47,95 56,112 15,29 23,80 46,101 16,15 47,49 5,55 -42,6 -64,1 -104,24 -55,45 -122,73 -177,119 -31,26 -56,108 -71,75l-35 -81c0,52 -2,147 69,147 49,0 -9,153 -2,181 11,46 -42,25 -61,51 -33,44 -10,121 -47,121 -33,0 -63,13 -92,13 -33,0 -40,-56 -92,-24 -54,33 -54,55 -125,55 -53,0 -114,21 -164,-7 -86,29 -107,-11 -178,-11 -85,0 -56,-43 -120,-56 -45,-9 -71,-11 -115,11 -69,35 -116,-8 -185,3 -34,5 -78,31 -111,21l-94 -31c-5,-12 23,-71 29,-86 17,-42 -54,-47 -79,-57 0,-10 62,-90 73,-103 36,-42 95,-25 145,-44 92,-35 -6,-262 -12,-326 -44,-164 -126,-322 -194,-476 -20,-44 -61,-94 -67,-143 -40,-72 -94,-137 -141,-205 -36,-53 -96,-139 -151,-173 -28,-17 -101,-81 -114,-110 -41,-31 -54,-35 -106,-35 -44,0 -54,-37 -75,-66 -34,-46 -157,-114 -213,-121 -61,-8 -108,-44 -166,-54 -74,-12 -97,62 -110,113 -67,0 -192,-74 -236,-127 -55,-63 -168,-30 -217,-109 -62,-101 -69,33 -166,20 -52,-7 -74,-37 -138,-37 -102,0 -135,-14 -220,-54 -47,-22 -196,-13 -219,-83 83,0 213,6 196,-105 -25,-164 -22,-104 97,-99 70,3 140,19 184,-53 38,-61 24,-37 87,-15 54,19 275,-31 332,-55 41,-17 139,-38 168,-59 33,0 164,24 187,11 60,-33 58,-95 133,-95 118,0 286,45 378,-47 71,-71 139,-17 221,-24 62,-9 85,-36 128,-76 26,-24 60,-2 90,4 85,17 155,-61 224,-49 57,9 86,73 136,91 95,33 123,-20 182,74 53,84 154,-60 171,-100 23,-51 123,-278 100,-328 22,-34 7,-132 -26,-158 -44,-34 -96,-9 -86,-77 5,-33 -4,-81 -9,-113 -31,-192 -181,-291 -363,-291 -64,0 -136,60 -136,-39 -9,-7 -29,-32 -36,-41 -15,-3 -34,-29 -50,-37 -20,-10 -51,-1 -74,-4 -70,-9 -103,-64 -162,-88 -41,-16 -71,18 -100,15 -11,-1 -88,-68 -119,-78 -91,-30 -147,-1 -234,10 -73,73 15,85 -5,130 -21,48 -80,20 -101,77 -14,38 -11,72 -11,111 0,48 -51,68 -61,113 -9,42 -101,55 -121,114 -11,32 1,69 -5,92 -11,2 -94,-19 -105,-23 -34,-15 -1,-62 -23,-77l0 -3c60,-30 50,-93 35,-148 -22,-79 -1,-150 -36,-230 0,-42 -20,-116 -62,-134 -68,-28 58,-55 75,-63 117,-48 92,-197 -34,-160 -79,23 -113,55 -197,37 -34,-7 -22,-47 -61,-66 -35,-18 -70,-25 -101,2 -7,6 -27,45 -28,45 -8,-7 -1,-58 -1,-70 0,-17 5,-34 16,-47 47,-55 6,-108 -43,-146 26,0 103,3 111,-25 10,-6 49,-30 52,-38 70,17 58,186 181,77 73,-65 17,-211 -7,-290 -33,-106 -36,-107 50,-179 51,-43 173,-130 243,-130 0,63 -57,126 -73,188 -18,69 -72,163 -72,231 0,48 63,80 93,107 36,34 90,-14 90,-60 0,-33 111,-143 143,-160 34,-17 8,71 -3,83 -56,65 -51,39 -56,122 50,80 116,63 191,43 30,-8 154,-51 154,-88 38,0 87,25 129,28 43,3 90,-12 126,-12 10,39 13,121 54,140 51,23 100,18 155,21 65,-10 160,-25 208,-76 47,-50 84,-14 138,-30 109,-32 227,-155 346,-105 79,33 129,10 101,102 -16,54 -113,-70 -148,11 -12,29 -46,96 -46,125 67,0 96,-14 164,19 12,6 153,122 131,86 -18,-29 -40,-49 -59,-76 -16,-23 -109,-74 -103,-91 9,-27 145,-8 172,-61 29,-16 34,-71 62,-80 12,-4 72,15 72,-6 -47,-12 -41,-34 -107,-34 -54,0 -59,-68 -104,-84 -38,-13 -73,-16 -105,-44 -54,-48 -22,-58 -105,-8 -29,17 -36,8 -61,-5 -93,-44 -159,5 -249,5 0,-54 132,-121 132,-201 0,-56 219,-41 219,-122 -66,0 -112,14 -176,35 -76,0 -129,71 -115,-60 7,-67 -80,40 -92,61 -10,18 -76,13 -70,-24 7,-42 -26,-2 -36,9 -41,45 -30,168 -84,178 -38,8 -295,33 -266,-13 11,-17 49,-89 45,-104 -47,35 -103,54 -156,80 -90,45 -91,32 -176,15 3,-14 73,-14 75,-53 3,-36 37,-83 34,-98 -6,-30 -15,-39 2,-69 27,-46 31,-26 31,-82 -2,1 -2,2 -3,4 12,-44 26,-40 61,-53 41,-15 64,-49 89,-83 60,-79 107,-98 189,-151l136 -89c27,-18 185,-69 185,-95 -20,-5 -106,9 -136,9 -66,0 -57,40 -88,77 -15,18 -74,30 -96,34 -56,9 -74,41 -123,54 -59,16 -108,-43 -160,-52 -57,-10 0,196 -129,117 -60,-37 -51,4 -104,10l-194 38c-10,2 -26,23 -37,29 -63,30 -187,116 -205,170 -51,0 -93,-26 -129,-26 -15,62 -145,91 -195,117 -112,58 -183,128 -312,90 -43,-43 -49,-68 -117,-65 -51,2 -64,-25 -104,-50 -78,-48 -262,-35 -237,90 16,82 22,30 -44,91 -84,78 -159,-44 -231,11 -46,36 -125,21 -178,14 -12,-2 -20,-89 -20,-110 0,-16 11,-59 3,-68 -38,-43 -54,-118 -111,-118 0,-24 48,-41 48,-63 36,12 64,36 101,1 33,-31 49,-108 13,-142 -29,-33 -87,-50 -77,-106 7,-42 34,-123 -32,-113 -66,10 -26,-16 -46,-49 -6,-9 -35,-8 -45,-18 -13,-13 11,-44 14,-58 13,-58 57,-104 37,-169 -18,-60 6,-14 34,-57 12,-18 6,-45 7,-65 22,-53 62,-100 91,-146 35,-55 43,-55 -4,-110 -19,-23 -32,-58 -34,-88 -1,-21 -15,-37 -21,-57 -91,-98 17,-83 34,-164 3,-14 -21,-39 -10,-50 27,-30 48,-37 38,-85 -24,-113 95,-2 95,-91 0,-44 -37,-35 7,-77 36,-34 74,-63 108,-104 58,-77 94,-3 158,-3 70,0 24,-117 24,-149 31,0 104,-24 123,-19 0,82 102,53 102,-34 23,0 52,46 87,53 79,16 107,-54 177,-54 40,0 110,7 146,21 64,23 77,72 91,136 16,76 67,-7 123,-7 3,0 -87,-34 -96,-63 -17,-55 -23,-53 -72,-79 -28,-15 -51,-41 -33,-64 29,-37 -11,-55 -11,-88 0,-22 21,-155 51,-147 22,6 39,22 64,27 69,15 -22,21 -22,65 0,72 150,-28 196,6 20,14 161,0 197,0 -30,-15 -45,-42 -80,-49l-108 -23c-24,-5 75,-79 17,-56 -82,33 -52,-23 -52,-77 13,-62 11,-58 79,-68 13,-2 106,34 81,7 -21,-22 -57,-77 -30,-93 54,-34 39,-10 66,26 40,54 68,9 94,-22 10,-12 61,15 76,18 6,1 8,143 81,82 31,-26 121,2 170,-12 64,-19 87,-59 135,-99 33,-28 38,-67 74,-31 56,56 33,-20 112,7 16,6 147,14 95,-18 -36,-22 -164,-75 -163,-96 1,-12 -21,-28 -25,-41 -18,-52 34,-8 44,4 22,26 77,8 105,1 71,-42 159,-20 231,-96 19,-21 18,-47 52,-47 77,0 104,-62 168,-77 34,-8 47,26 74,35 50,18 98,2 129,34 34,34 59,68 108,80 17,67 -124,121 -124,146 6,2 60,5 29,24 -86,54 48,101 92,90 0,-25 -47,-66 17,-66 57,0 80,-20 101,-73 128,-37 281,-5 412,-5 21,0 171,-27 91,-54 -68,-23 -119,7 -185,7 83,-67 125,-170 199,-246 77,-79 258,-71 366,-128 96,-16 185,-6 291,-6 54,0 100,4 139,43 18,18 54,88 76,88 0,-54 65,-66 46,-93 -33,-46 10,-61 10,-109 0,-99 75,40 122,-40 30,-51 -37,-78 46,-59 23,5 82,14 94,-15 24,-58 40,-88 81,-18 47,81 73,-15 82,-24 5,-14 8,-57 22,-57 20,0 40,3 60,2 20,-1 97,-29 73,14 -25,45 -30,89 -43,137 -13,50 -8,86 26,125 11,23 41,36 9,49 -23,9 -24,40 -8,57 33,36 -36,66 19,86 18,6 79,-10 81,13l12 120c3,30 -14,60 -14,93 16,0 37,-39 54,-47 42,-19 87,1 113,-41 10,-17 8,-42 15,-62 4,-10 10,-68 19,-68 2,-5 18,6 20,7 47,29 147,27 201,45 0,41 -156,-2 -94,121 14,27 24,59 41,84 24,36 55,38 85,62 55,20 141,22 171,80 21,40 16,80 16,125 12,-4 48,-54 57,-67 12,-17 -13,-44 -17,-66 -9,-49 -17,-99 -33,-146 -12,-38 -26,-68 -21,-106 32,-51 10,-34 68,-8 16,7 5,-63 3,-74l-38 -162c-3,-12 18,-96 25,-96 77,0 27,-72 78,-111 15,-11 23,-74 39,-34 11,27 40,59 47,80l2 0c9,-37 37,-32 17,-81 -16,-39 -17,-56 -11,-94 2,0 1,1 2,-1 34,9 49,122 116,88 46,-23 84,159 176,85 44,-35 53,-64 120,-64 56,0 114,16 171,16 38,-2 72,17 109,17 0,19 -27,28 7,47 21,12 89,91 94,91 62,4 44,-24 97,26 47,44 130,-62 187,-36 4,2 4,48 7,58 7,21 60,98 82,98l0 0 -101 146c-33,61 1,131 4,199 3,82 12,148 44,224 5,22 36,46 57,46 0,2 0,1 2,2 0,102 43,217 161,214l142 -4c138,-4 -39,253 56,295 28,12 60,4 89,21 39,22 62,66 107,87 39,18 110,64 49,107 -121,122 -247,245 -335,388 -37,60 -15,151 23,205 26,37 28,48 67,77 31,22 82,57 96,96l94 107c-71,30 -127,68 -195,100 -185,87 -24,282 -129,397l166 58c51,22 121,15 168,37 43,21 -26,197 -34,239 -6,33 -21,66 7,92 27,25 44,58 44,97 3,33 -17,137 17,149 49,18 118,-34 169,-34 0,16 -37,60 -47,74 -15,22 -18,40 -30,63 -18,34 -74,52 -99,79 -22,24 23,43 44,59 44,34 62,68 122,80 43,9 -32,116 -43,130 -8,39 -21,50 -21,98 0,72 -34,129 -92,166 -76,49 -11,186 18,254 38,89 158,33 158,150 5,68 -107,41 -152,41 -24,0 -80,18 -97,32 -31,25 -49,59 -71,96l0 0 -146 42c-96,24 -186,31 -258,104 -57,57 -161,104 -240,112l-145 14c-37,4 -128,164 -149,196 -19,29 -93,199 -91,227 -48,127 85,72 147,91 103,32 49,23 21,107 -13,40 -2,98 -4,141 -3,63 100,118 151,141 93,43 75,83 98,175 1,37 16,88 23,127 9,50 29,52 51,91 33,56 53,125 74,188 22,68 -13,73 67,105 103,41 120,-54 214,-54 40,0 64,27 103,27 45,0 78,-53 129,-53 48,13 99,44 146,44 118,0 113,114 236,114 131,0 134,183 221,262 66,60 66,-61 106,-99 25,-24 59,-15 93,-16 42,-2 73,-56 100,-60 42,3 53,-35 82,-52 27,-16 19,10 26,27 13,32 28,57 50,81 17,19 37,47 47,70l27 26c-21,16 -38,39 -52,70 -24,54 122,189 50,237 -125,83 -134,12 -97,146 24,86 24,157 24,254 0,35 4,70 11,104l-94 -21c-61,-33 -76,6 -135,8 -62,2 -67,2 -67,65 0,63 -25,208 -106,208 -27,0 -56,-18 -75,8 -16,22 -20,46 -42,70 -60,22 -155,-79 -206,-101 -57,-25 -98,6 -154,6 0,3 0,3 -3,3 -6,29 -60,84 -34,125 7,12 31,10 31,28 0,53 -7,50 38,76 67,38 69,76 36,138 -29,55 -6,112 -40,166l-10 152 0 0zm-2740 470c7,-13 18,-29 14,-45 -3,-11 2,-34 -11,-40 -22,-10 -28,30 -31,42 -3,13 -2,19 0,32 1,6 3,12 5,18 1,5 1,13 5,18l19 -24zm-240 101c0,-20 -11,-36 -25,-50 -6,-6 -20,-8 -27,-3 -7,5 -9,14 -7,21 4,13 3,35 3,49 0,6 2,16 9,18 9,2 32,-5 41,-7l6 -28zm-56 -9868c-19,0 -34,-19 -50,-28 -26,-14 -192,40 -196,59 13,13 46,16 64,35 55,55 75,2 136,5 35,1 51,24 80,35 20,8 52,-4 75,1 16,3 36,10 51,11 33,2 -17,-48 -27,-53l-91 -44 -43 -21zm-5508 6719c0,-16 -21,-43 -37,-43 -26,0 -35,-1 -55,-19 -20,-17 -39,-15 -57,4 -20,20 21,19 34,23 28,9 57,24 80,37 5,3 6,14 7,20 2,7 35,22 44,31 16,16 100,8 70,-16 -11,-9 -26,0 -38,-1 -16,-1 -22,-13 -34,-21l-14 -15zm-109 -2902c33,-11 29,-47 51,-66 12,-10 28,-12 42,-19 17,-8 9,-28 19,-41 1,0 1,0 1,0 12,1 21,8 35,8 28,0 -23,34 -29,40 -17,15 -62,53 -62,77 0,19 -12,15 -26,20 -19,7 -21,25 -43,0l12 -20zm-189 -298c-13,9 -34,7 -48,5 -8,-1 -16,2 -24,0 -9,-1 -34,-15 -37,3 -2,12 14,26 24,29 12,4 20,2 32,-2 15,-6 21,6 35,5 14,0 28,-11 28,-25l-10 -15zm-263 4c-5,12 -19,21 -32,22 -13,2 -21,-1 -27,14 -13,30 25,12 36,4 8,-6 16,-10 26,-11 10,-2 15,-14 7,-21l-10 -7zm-274 -417c-7,0 -15,-2 -21,-5 -10,-4 -23,-2 -30,7 -8,9 -25,43 -2,43 26,0 48,-10 66,-28l-12 -17zm-247 -48c8,-5 10,-18 13,-27 3,-10 8,-21 10,-31 1,0 1,0 2,-1 6,1 13,32 10,38 -2,4 -4,11 -4,15 0,6 -2,7 -3,11 -2,1 -7,6 -9,8 -8,5 -12,7 -21,4l3 -16zm330 314c0,-14 -2,-29 -2,-43 0,-8 -3,-19 -7,-26 -4,-8 31,-40 37,-33 5,5 10,13 15,19 4,5 10,10 14,16 3,4 5,11 7,15 3,7 10,8 10,17 0,12 -10,21 -13,32 -5,17 -33,18 -47,22l-15 -19zm-838 -861c-17,11 -40,5 -59,5 -15,0 -9,20 0,26 11,7 20,7 34,7 12,0 18,8 28,9 8,1 25,5 30,-3 6,-10 -6,-40 -20,-42l-13 -2zm-237 219c36,-19 90,-28 118,-56 24,-24 33,-73 73,-77 44,-5 49,-21 99,-14 38,5 53,6 87,-17 32,-21 -9,-23 -22,-49 -3,-6 10,-10 14,-10 45,0 59,50 78,60 13,6 82,-12 70,6 -17,24 -45,140 15,116 61,-25 52,-1 109,-1 -34,68 -98,22 -132,66 -38,49 -17,77 -88,70 -42,-4 -112,-12 -128,40 -15,47 -126,93 -176,93 -120,0 55,-90 88,-106 28,-14 54,-18 26,-39 -11,-8 -36,-51 -42,-51 -14,0 -68,27 -89,33 -44,11 -89,39 -132,44 -96,12 -34,-43 10,-76l23 -31z"/>
  <path class="fil1 str0" d="M16510 13548c11,-28 5,-83 5,-113 18,-2 63,1 76,-11 12,-11 35,-64 35,-79 2,0 2,-1 4,-2 6,30 38,48 46,78 11,47 38,16 76,16 0,19 7,90 -29,70 -23,-12 -32,-37 -61,-31 -29,6 -69,46 -88,70 -6,7 -63,90 -74,44l11 -42zm-318 108c0,-75 20,-118 45,-184 7,-19 12,-68 25,-78 13,-11 52,-56 64,-56 0,29 -49,114 8,118 12,1 96,20 79,41 -13,16 -74,1 -94,6 -35,7 -68,76 -74,109 -3,17 -21,36 -9,53 5,8 29,29 29,35 -27,0 -41,18 -40,44 1,12 5,23 -13,22 -28,-1 -16,-50 -15,-66l-5 -44zm-165 2257c-24,-3 -28,-37 -23,-55 4,-13 -1,-19 -8,-30 -7,-10 -7,-26 -7,-38 14,0 46,17 60,23 45,20 68,-13 97,-39 28,-26 30,-15 37,13 8,32 14,95 -33,95 -12,0 -38,7 -45,17 -12,19 -20,28 -47,28l-30 -14zm-1436 455c-57,-5 -79,-62 -142,-19 -61,42 -71,-22 -101,-33l-79 -28c-35,-12 -57,-54 -84,-63 -40,-13 -88,69 -143,69 -29,0 -46,-27 -66,-27 -39,0 -47,40 -98,30 -52,-11 -46,-62 -74,-74 -60,-25 -30,-37 -70,-69 -45,-36 -77,-55 -39,-113 32,-48 39,-70 -20,-98 -53,-20 -61,-133 -87,-179 -16,-28 14,-70 14,-105 0,-20 -15,-102 -3,-102 7,-22 58,8 62,-65 2,-32 -8,-69 -1,-99l1 -1c21,0 100,56 122,67l255 134c67,35 118,41 192,38 61,-3 53,6 53,74 0,35 5,72 33,95 34,28 -8,113 35,131 57,23 92,26 147,58 49,14 63,60 115,75 72,20 151,-10 224,4 39,7 98,47 98,91 -50,0 -76,8 -79,61 -2,39 -49,50 -63,80 -9,19 12,50 -2,64 -8,8 -31,16 -42,21 -30,12 -19,43 -61,45 -34,1 -33,-62 -79,-62l-20 1zm719 -1024c38,-10 5,-94 43,-79 12,4 26,20 35,29 16,15 60,41 81,53 40,23 69,30 116,21 38,-7 69,-35 105,-35 0,21 -81,50 -94,89 -3,9 18,72 22,86 14,43 -37,-30 -44,-35 -28,-18 -25,-21 -60,-31 -20,-6 -40,-8 -57,-21 -22,-18 -23,-47 -50,-62 -15,-8 -48,-6 -65,-2l-34 -14zm-3185 -2224c-38,-36 -121,-66 -145,-105 -110,-179 160,-100 244,-73 69,23 129,52 203,52 66,0 96,35 142,68 9,61 14,103 -18,159 -27,3 -55,-48 -80,-65 -44,-31 -92,69 -151,55 -30,-7 -55,-31 -83,-41l-97 -34 -16 -16zm9025 -15c0,9 1,18 4,27 17,45 60,67 74,119 13,47 -5,105 -36,139 -46,51 -61,57 -86,117 -16,37 -5,75 -5,113 0,7 -2,13 -6,17l51 47c-16,39 -52,148 -34,186 75,158 -10,190 -158,213 -47,7 -133,36 -166,71 -42,45 -11,133 -25,189 8,49 -7,74 -52,88 -17,5 -111,24 -118,3 -19,-3 -22,-123 -27,-143 -20,-83 -238,-2 -277,33 -61,53 -96,101 -180,56 -51,-2 -105,-91 -141,-121 -41,-35 -54,-66 -87,7 -38,85 -112,164 -144,245 -21,52 9,126 -7,177 -8,25 -199,78 -238,83 -54,7 -77,-76 -125,-85 -52,-10 -85,64 -141,76 -66,15 -96,-7 -150,-42 -29,-19 -35,-63 -38,-94 -1,-8 -10,-65 -22,-47 -18,26 -31,45 -56,66 -70,61 -137,105 -163,204l0 0c-40,1 -92,20 -136,27 -85,12 -68,-58 -101,-105 -6,-9 -46,-47 -42,-50 25,-21 40,-18 49,-53 43,-65 14,-116 -21,-172 -25,-38 -41,-117 20,-127 43,-7 44,-32 70,-39 32,-9 118,40 150,53 6,3 55,22 55,5 -2,-1 0,0 -2,-1 -1,-3 -93,-65 -108,-86 -33,-47 -28,-86 -88,-113 -44,-20 -93,21 -136,18 -17,-1 -2,-34 -4,-47 -13,-82 -127,-36 -173,-47 -42,21 -86,3 -102,65 -5,18 -20,84 -29,78 -90,-53 -133,-80 -248,-77 -107,4 -80,94 -143,110 -52,13 -170,36 -219,24 8,-32 113,-72 144,-96 25,-19 89,-117 96,-146 -94,0 -76,88 -122,137 -73,77 -167,-59 -207,-6 -40,53 -6,63 -78,101 -37,30 -22,90 -22,128l-1 1 -1 1 -1 1c-22,0 -173,-97 -196,-114 -78,-55 -161,-43 -232,10 -55,41 -102,38 -167,38 -99,0 -119,58 -169,124 -36,0 -53,-35 -81,-35 -43,0 -60,36 -95,-2 -31,-15 -185,-77 -196,-100 -19,-38 61,-126 -15,-162 -78,-37 -31,-44 -76,-93 -50,-55 -140,-147 -222,-91 -41,28 -22,-38 -44,-50 -36,-20 -71,-10 -86,-67l42 -13c5,-27 -23,-64 -18,-68 16,-12 41,-40 56,-48 36,-18 131,6 159,26 39,27 59,53 109,61 58,9 41,106 73,100 30,-6 25,-48 50,-48 31,0 39,35 80,19 41,-20 74,-43 63,-93 -9,-43 52,-5 71,-1 9,2 42,3 42,14l5 54c1,15 0,42 6,54 20,48 56,9 64,-26 9,-39 2,-36 35,-58 37,-24 34,-7 58,22 36,45 54,58 103,87 69,41 101,-15 148,-53 13,-11 29,-1 43,-9 35,-21 33,-51 13,-83 -22,-35 11,-52 24,-86 10,-17 -7,-86 -17,-104 -7,-12 -32,-74 -28,-83 26,0 64,68 101,54 32,-13 11,-95 20,-100 20,-10 61,16 81,-3 28,-26 45,-31 60,-70 10,-28 28,-132 24,-160 -33,0 -47,96 -55,119 -22,61 -26,82 -98,82 -44,0 -42,-6 -50,-41l-1 -1c-42,0 -50,5 -79,-25 -29,-34 -36,-57 -80,-77 -43,-19 -62,22 -102,0 -14,-8 -39,-23 -17,-41 9,-7 31,5 32,1l2 0c0,-25 -50,-63 -74,-69 -7,-2 -43,-5 -44,-11 -1,-12 2,-29 2,-42 1,0 2,-2 2,-4 31,-8 52,-12 84,-2 17,5 110,62 99,21 -6,-22 -18,-46 -32,-63 -34,-43 -87,8 -120,-13 -24,-15 -48,-4 -74,4 -3,10 30,37 21,66 -5,19 -59,34 -76,38 -60,14 -96,-42 -149,-19 -43,19 -87,63 -137,55 -44,-7 -86,-42 -106,-79 -16,-29 -52,-3 -77,-1 -47,89 69,47 67,78 -2,41 -73,38 -71,79 2,32 28,32 40,50 18,28 -61,48 -80,43 -32,-8 -77,-86 -108,-62 -23,17 -6,186 4,211 10,26 -6,31 -7,21 -17,-4 -32,-31 -47,-41 -17,-12 -41,-10 -55,-23 -51,-47 -23,-33 -74,14 -36,32 -40,-23 -40,-49 0,-18 23,-71 5,-74 -54,-8 -64,23 -74,71l-1 1c-9,0 -14,-8 -20,-15 -15,-41 -10,-63 -43,-95 -24,-24 -41,-66 -34,-100 22,-91 -47,-111 -88,-181 -20,-35 -5,20 0,30 13,24 5,35 12,57 9,29 34,32 50,51 32,37 -31,45 -47,58 -2,32 -13,59 11,84 12,12 32,24 26,45 -17,57 -85,63 -23,130 11,12 73,43 74,44 17,52 31,106 69,146 29,30 130,108 11,98 -72,-6 -150,-84 -194,5 -16,0 -36,-42 -55,-53 -24,-14 -61,-22 -25,-51 32,-26 -80,-135 -97,-135 -7,28 37,134 -27,107 -38,-16 -99,-5 -101,-65 -31,-82 -61,-165 -78,-252 -2,1 0,0 -2,1l-5 161c-2,62 43,104 43,142 -68,14 -46,-19 -109,-43 -57,-22 -107,22 -130,14 -30,-10 -58,-14 -89,-2 -50,19 -107,65 -161,65 -9,0 -85,-106 -95,-123 -14,-25 29,-76 -4,-77 -46,-3 -26,19 -28,64 -2,36 -45,95 -59,132 -49,134 -100,203 -54,348 2,28 16,113 29,137 13,23 39,25 44,56 12,78 1,129 75,179 46,31 48,35 76,84 20,34 77,102 115,111 -66,0 -120,-73 -185,-47 -39,16 -19,14 -38,-14 -9,-12 -15,-19 -29,-25 -32,-14 -101,26 -101,24 -4,-19 -19,-41 -31,-56 -14,-17 -41,-28 -47,-49 -6,-23 7,-65 -10,-81 -24,-22 -39,-43 -36,-79 -11,-45 -10,-237 -68,-247 0,-7 75,-6 99,-36 30,-39 54,-98 56,-146 4,-100 -32,-196 -26,-296 -34,-114 -94,-177 -167,-264 -38,-45 -159,-138 -216,-152 0,-22 4,-42 -2,-63 -8,-31 -27,-37 -37,-62 -27,-47 -52,-39 -28,-83 21,-38 41,-62 18,-114 -31,-69 48,-172 104,-215 68,-52 144,-8 197,-55 8,-7 69,-70 44,-77 -123,-31 -17,-63 28,-136 20,-33 104,-105 69,-105 -60,0 -127,97 -129,91 -3,-11 -35,-74 -46,-74 -39,0 -12,82 -3,98 41,71 -182,76 -234,118 -68,54 9,73 53,73 -5,14 -32,23 -41,41 -6,11 8,41 5,57 -2,10 -18,11 -23,19 -23,31 -56,54 -56,97 0,15 15,267 -45,170 -25,-41 -103,-86 -121,-123 -74,-35 -135,-112 -206,-155 -64,-39 -117,-78 -190,-105 -119,-45 -311,-123 -393,24 0,1 -12,17 -15,9 -24,-61 31,-111 51,-157 10,-22 206,-5 238,-1l32 4c-10,-30 -96,-45 -124,-48 -58,-26 -83,-2 -137,9 -48,10 -42,-57 -80,-66 23,0 47,4 68,-2 19,-5 -2,-25 29,-33 58,-14 -12,-76 5,-112 23,-51 -15,-74 38,-67 64,8 124,-32 160,-79 47,-62 67,-160 118,-214 27,-29 72,-45 93,-69 5,-6 -38,4 -41,4 -41,-5 -67,27 -88,59l-98 149c-14,21 -164,114 -169,46 -7,-92 -22,-109 -83,-170 -28,-28 -44,-68 -34,-8 7,44 39,67 69,91 37,30 10,218 -45,238 -52,19 -126,-28 -71,46 30,40 26,92 9,139 -62,90 -152,70 -243,61 -118,-12 -157,43 -259,69 -24,6 -80,-43 -87,-63 -8,-25 -2,-33 -27,-50l-76 -54c-47,-34 -133,-152 -150,-206 -8,-61 -59,-143 -95,-191 -38,-50 -70,-71 -119,-78l0 0 10 -152c34,-54 11,-112 40,-166 32,-62 31,-100 -36,-138 -45,-26 -38,-23 -38,-76 0,-18 -23,-16 -31,-28 -25,-41 29,-96 34,-125 3,0 2,0 3,-3 55,0 96,-30 154,-6 51,22 145,123 206,101 22,-24 26,-48 42,-70 19,-26 48,-8 75,-8 81,0 106,-145 106,-208 0,-63 5,-63 67,-65 59,-2 74,-41 135,-8l94 21c-7,-34 -11,-69 -11,-104 0,-97 0,-168 -24,-254 -37,-133 -28,-63 97,-146 72,-48 -74,-183 -50,-237 14,-31 31,-54 52,-70l-27 -26c-10,-23 -30,-51 -47,-70 -22,-24 -37,-49 -50,-81 -7,-17 1,-43 -26,-27 -29,18 -40,55 -82,52 -27,3 -58,58 -100,60 -34,1 -68,-8 -93,16 -40,38 -41,159 -106,99 -86,-79 -89,-262 -221,-262 -122,0 -118,-114 -236,-114 -47,0 -98,-31 -146,-44 -51,0 -84,53 -129,53 -39,0 -64,-27 -103,-27 -94,0 -111,95 -214,54 -80,-32 -45,-38 -67,-105 -21,-62 -41,-131 -74,-188 -22,-38 -42,-41 -51,-91 -7,-39 -22,-89 -23,-127 -23,-92 -5,-133 -98,-175 -50,-23 -153,-78 -151,-141 2,-43 -9,-101 4,-141 27,-84 82,-76 -21,-107 -62,-19 -195,36 -147,-91 -2,-28 72,-197 91,-227 21,-32 112,-192 149,-196l145 -14c79,-8 184,-55 240,-112 72,-72 162,-80 258,-104l146 -42 0 0 282 12c70,-6 256,-90 294,-59 55,45 117,81 187,63 56,-14 37,-75 95,-41 47,27 124,61 88,118 -19,30 -55,60 -68,91 -21,52 34,64 50,105 95,104 281,-90 389,-119 31,-8 196,-65 208,-55 43,35 78,98 93,152 16,0 46,-15 63,-21 18,-6 89,10 112,15 27,6 33,52 64,65 104,22 153,18 252,-20 35,-13 91,-32 128,-14 18,9 63,47 78,47 28,-56 44,-120 105,-149 42,-20 73,2 122,0l185 -7c22,-1 137,-106 142,-129 -42,-28 -60,-67 -47,-119 12,-22 20,-47 35,-67 8,-10 15,-21 25,-29 11,-9 23,-19 32,-30l49 -63c18,6 34,12 47,18 116,48 222,-75 356,-4 106,56 227,76 235,215 7,123 39,94 132,121 55,16 13,46 -32,81l79 17c71,-35 171,-94 250,-102 84,-8 122,-7 201,18 82,26 180,1 218,77 38,76 126,172 219,172 29,2 46,12 76,10 59,-2 108,-38 167,-38 64,0 99,115 148,149 44,31 44,115 55,166 2,16 17,75 36,77 2,21 7,41 7,66 0,24 -3,45 -3,69 1,1 2,3 2,5 2,1 2,1 3,3 37,0 54,-33 81,-54 20,-16 24,-28 30,-53 7,-31 28,-65 49,-88 53,-21 76,-67 145,-51 51,12 101,24 150,0 42,-21 58,-90 104,-108l115 -46c95,-38 83,-19 103,79 24,116 19,192 -5,310 -11,56 -30,108 -60,158 -34,59 -7,99 -7,160 5,14 4,15 3,28 -8,6 -6,22 -2,29 15,5 30,19 43,23 8,21 34,100 54,100l120 2c56,1 136,-69 175,-107 30,-29 69,-50 99,-79 24,-24 41,-53 64,-77 31,-18 39,-44 81,-47 79,-5 138,-10 120,-98 -51,-247 300,-314 210,-583 -24,-25 -69,-125 -94,-133l1 -3c65,0 180,27 232,-6 24,-15 50,-45 77,-52 53,-15 81,26 136,-11 81,-55 115,-104 223,-104 60,0 162,67 179,126 15,38 30,74 61,103 25,23 60,35 89,48 35,15 25,88 26,125 2,44 37,111 59,148 45,74 64,61 102,-9 22,-41 34,-80 84,-51 107,60 88,-55 164,-88 67,-29 115,28 193,-19l0 0c20,32 36,65 53,99 24,48 82,77 107,124 20,39 24,118 20,160 14,72 5,130 -16,198 -31,102 18,71 88,96 35,12 95,-89 130,-119 35,-30 278,-70 318,-54 71,28 27,165 -14,203 -57,53 -146,74 -223,76 -125,3 -183,-29 -272,68 -53,58 -182,160 -182,245 -20,40 -23,112 -32,157 -33,174 140,22 212,7 66,-14 97,6 156,30 57,23 136,41 196,56 24,21 73,34 102,51 29,17 41,45 75,60 47,20 95,20 141,45 78,42 168,81 236,138 74,63 96,158 131,244 10,55 72,80 72,139 0,43 -54,86 -80,118 -17,21 -44,73 -61,84 -55,36 -82,100 -34,154 49,54 71,96 64,173 -12,33 -61,100 -36,131 30,37 39,89 93,56 93,-58 196,-125 233,-235l2 0 18 192c7,77 34,108 109,126 0,83 -53,180 -143,199 -27,6 -92,3 -74,46 10,24 1,104 -16,125 -29,53 -61,117 -127,134 -46,12 -99,-14 -128,36 -18,31 -25,59 -49,90 -68,87 216,8 231,126 39,22 65,26 111,26 0,1 4,3 5,4 8,34 35,63 35,101 0,42 -197,26 -229,34 -43,10 -51,12 -83,39 -26,22 -85,74 -113,86 1,0 1,-1 2,0 -58,58 37,94 37,155 0,51 -33,96 -33,149 0,88 122,80 140,153 18,73 -50,148 -55,225 0,30 -1,55 8,83 4,11 12,20 19,30 7,12 14,28 25,35l47 35 0 0z"/>
  <path class="fil2 str0" d="M14118 1437c5,-18 -6,-35 -7,-53 -2,-17 1,-38 -14,-51 -14,-13 -35,-10 -50,-1 -14,8 -8,23 -7,35 4,40 -21,45 -47,66 -19,15 -15,34 -11,53 7,32 0,55 39,55 28,0 71,-53 88,-73l10 -31zm726 -178c8,2 40,-7 47,-12 12,-10 7,-21 7,-35 0,-17 5,-26 9,-42 4,-13 -55,-14 -67,-14 -23,0 -38,12 -36,35 1,11 7,18 7,28 0,14 -18,35 -23,49 -12,31 22,14 35,7l21 -17zm362 415c28,-48 -51,-152 43,-172 33,-7 130,-74 135,-6 1,15 -63,35 -55,73 5,25 7,41 -3,65 -5,12 -43,19 -32,38 7,12 16,24 11,39 -3,9 -18,10 -25,10 -19,1 -20,23 -34,25 -18,3 -40,-25 -34,-42l-7 -32zm6592 2701l-94 -30c-17,24 -96,54 -128,91 -14,17 -52,101 -54,101 -1,4 -21,-22 -23,-24 -76,-76 -14,-99 -52,-186 -18,-42 -98,-32 -135,-34 -149,-8 -161,-98 -266,-160 -81,-48 -119,-131 -119,-228l0 0c-9,6 -19,10 -27,8 -57,-17 -97,-40 -165,-23 -53,13 -37,81 -74,105 -39,27 93,98 88,110 -11,29 -95,101 -124,119 -43,26 -53,-120 -56,-138 -16,-104 29,-111 -71,-187 0,51 19,105 17,157 -2,39 -72,103 -90,143 -9,19 -35,-44 -36,-58 -4,-34 -11,-88 -41,-107 -65,-43 -17,-140 -57,-163 -33,-20 -85,2 -100,-48 -11,-31 17,-59 6,-87 -4,-9 -42,-40 -52,-51 -49,-53 44,-98 34,-135 -78,0 -215,56 -259,119 -20,29 -4,61 -20,78 -26,29 -64,44 -77,-8l-2 0c-5,18 -66,132 -81,144 -37,29 -59,-43 -68,-58 -18,-29 -78,-8 -93,-23 36,-49 86,-86 140,-119 54,-40 46,-98 73,-156 25,-54 79,-112 115,-160 35,-46 6,-36 -40,-37 -24,-1 -48,-3 -72,-10 -88,-26 -38,-54 -49,-113 -2,-11 -42,-59 -51,-62 -10,32 -76,48 -63,90 17,56 17,73 -33,106 -74,56 -145,88 -234,113 -77,22 -103,99 -155,113l-113 30c-53,14 -13,88 -47,88 0,-173 -75,-208 -254,-177 -31,5 -169,34 -189,49 -47,35 62,85 79,90 98,25 99,71 18,130 -117,94 -338,255 -494,218 -50,-12 -29,49 -48,77 -33,48 -96,60 -103,123 -5,43 -142,150 -175,185 -50,86 -84,82 -150,144 -59,55 -70,95 -52,170 -52,-13 -154,16 -188,-7 -80,-56 -19,-118 -132,-71 -49,21 -14,70 -2,113 22,78 47,122 -12,185 -20,21 -44,41 -6,67 44,30 55,65 -9,31 -21,-11 -144,-226 -147,-252 -32,-37 -86,-67 -47,-118 37,-47 -48,-14 -48,-65 0,-32 -2,-49 -6,-80 -4,-34 42,-86 24,-93l-193 -74c-118,-45 -150,-64 -194,-172 0,-42 -99,-25 -132,-37 -19,-7 -148,-101 -148,-108 2,-32 22,-65 28,-97 11,-58 -24,-98 -31,-151l-29 -224c-3,-23 -8,-68 -29,-83 -21,-15 -61,11 -61,-29 0,-58 -74,-89 -109,-138 -14,-19 -59,38 -109,21 -84,-29 -68,-95 -88,-166 -4,-15 -1,-94 -19,-94 -51,0 -107,24 -149,-20 -38,-40 -85,-66 -105,-120 0,-129 -79,-9 -99,-70 -3,-9 -17,-46 -17,-53 1,-17 52,-30 65,-49 23,-33 2,-75 -18,-102 -40,-55 53,-80 62,-118 -29,-7 -80,-27 -100,-49 -13,-16 -44,-88 -48,-86 -25,14 -36,40 -61,54 -19,11 -92,17 -116,18 -26,1 -52,-12 -76,-6 -25,-6 -52,-35 -77,-44 -26,-9 -48,8 -74,2 -18,-4 -104,-68 -98,-85 11,-32 80,-40 80,-51 -24,0 -88,-6 -89,-35 -4,-67 34,-39 61,-88 26,-48 197,-43 64,-99 -67,-28 -17,-96 -9,-136 4,-21 -174,-18 -199,6 -45,43 -81,42 -81,-22 0,-23 -39,-2 -51,1 -128,32 -197,192 -197,314 0,26 -55,214 -70,218l-115 34c0,-36 11,-68 3,-106 -8,-41 48,-54 76,-74 80,-57 65,-148 99,-237l48 -127c-2,-1 -2,0 -4,2l53 -100c16,-30 -32,-23 -52,-28 -80,-20 23,-98 23,-139 0,-32 -10,-79 -34,-102 -54,-54 70,-29 70,-32 0,-16 -19,-50 -35,-53 -43,-9 -57,11 -57,-35 -32,0 -76,33 -110,41 -51,12 -102,-10 -139,39 -41,53 -36,49 -102,68 -63,18 -84,10 -144,46 -13,22 -26,75 -55,75 -23,0 -47,-11 -63,10 -38,50 -43,121 -74,174 -27,46 -109,254 -178,254 0,-37 100,-147 119,-189 20,-43 52,-221 -26,-206 -64,12 3,-81 7,-121 4,-46 -45,-176 -98,-176 -32,0 -43,16 -63,46l-189 276c-58,84 -46,-107 -126,-52 -28,19 -30,58 -53,82 -15,15 -52,-32 -86,-35 -105,-25 -121,-12 -207,49 -62,44 -242,141 -314,144 -75,3 -7,77 -39,120 -21,28 -156,29 -194,28 -126,-4 -103,-84 -59,-156 32,-51 -56,-35 -82,-35 -137,11 -188,-66 -213,-188 -43,-7 -106,32 -148,-2 -58,-47 -49,7 -112,7l-1 3c-11,3 -17,49 -36,57 -19,7 -51,-12 -56,18 -11,71 -129,12 -92,90 22,46 -35,65 -77,71 -91,13 13,70 -45,58 -25,-5 -51,-33 -76,-27 -40,9 -79,44 -116,49 -41,4 -100,-36 -57,46 19,37 6,84 60,81 52,-3 52,-48 69,47 0,35 -7,91 -19,124 -8,23 -44,44 -2,54 88,22 -12,103 81,84 36,-7 76,-16 93,23 33,79 38,110 38,195 0,77 -91,98 -145,120 -25,10 -27,24 -46,39 -14,47 13,115 13,169 0,44 -61,110 -3,122 32,7 52,10 85,10 -26,35 -70,188 -124,178 -33,-6 -62,12 -88,7 -21,-4 -42,-15 -63,-21 -26,-32 -42,-140 -73,-147 -78,-17 -94,91 -137,91l0 0 -101 146c-33,61 1,131 4,199 3,82 12,148 44,224 5,22 36,46 57,46 0,2 0,1 2,2 0,102 43,217 161,214l142 -4c138,-4 -39,253 56,295 28,12 60,4 89,21 39,22 62,66 107,87 39,18 110,64 49,107 -121,122 -247,245 -335,388 -37,60 -15,151 23,205 26,37 28,48 67,77 31,22 82,57 96,96l94 107c-71,30 -127,68 -195,100 -185,87 -24,282 -129,397l166 58c51,22 121,15 168,37 43,21 -26,197 -34,239 -6,33 -21,66 7,92 27,25 44,58 44,97 3,33 -17,137 17,149 49,18 118,-34 169,-34 0,16 -37,60 -47,74 -15,22 -18,40 -30,63 -18,34 -74,52 -99,79 -22,24 23,43 44,59 44,34 62,68 122,80 43,9 -32,116 -43,130 -8,39 -21,50 -21,98 0,72 -34,129 -92,166 -76,49 -11,186 18,254 38,89 158,33 158,150 5,68 -107,41 -152,41 -24,0 -80,18 -97,32 -31,25 -49,59 -71,96l0 0 282 12c70,-6 256,-90 294,-59 55,45 117,81 187,63 56,-14 37,-75 95,-41 47,27 124,61 88,118 -19,30 -55,60 -68,91 -21,52 34,64 50,105 95,104 281,-90 389,-119 31,-8 196,-65 208,-55 43,35 78,98 93,152 16,0 46,-15 63,-21 18,-6 89,10 112,15 27,6 33,52 64,65 104,22 153,18 252,-20 35,-13 91,-32 128,-14 18,9 63,47 78,47 28,-56 44,-120 105,-149 42,-20 73,2 122,0l185 -7c22,-1 137,-106 142,-129 -42,-28 -60,-67 -47,-119 12,-22 20,-47 35,-67 8,-10 15,-21 25,-29 11,-9 23,-19 32,-30l49 -63c18,6 34,12 47,18 116,48 222,-75 356,-4 106,56 227,76 235,215 7,123 39,94 132,121 55,16 13,46 -32,81l79 17c71,-35 171,-94 250,-102 84,-8 122,-7 201,18 82,26 180,1 218,77 38,76 126,172 219,172 29,2 46,12 76,10 59,-2 108,-38 167,-38 64,0 99,115 148,149 44,31 44,115 55,166 2,16 17,75 36,77 2,21 7,41 7,66 0,24 -3,45 -3,69 1,1 2,3 2,5 2,1 2,1 3,3 37,0 54,-33 81,-54 20,-16 24,-28 30,-53 7,-31 28,-65 49,-88 53,-21 76,-67 145,-51 51,12 101,24 150,0 42,-21 58,-90 104,-108l115 -46c95,-38 83,-19 103,79 24,116 19,192 -5,310 -11,56 -30,108 -60,158 -34,59 -7,99 -7,160 5,14 4,15 3,28 -8,6 -6,22 -2,29 15,5 30,19 43,23 8,21 34,100 54,100l120 2c56,1 136,-69 175,-107 30,-29 69,-50 99,-79 24,-24 41,-53 64,-77 31,-18 39,-44 81,-47 79,-5 138,-10 120,-98 -51,-247 300,-314 210,-583 -24,-25 -69,-125 -94,-133l1 -3c65,0 180,27 232,-6 24,-15 50,-45 77,-52 53,-15 81,26 136,-11 81,-55 115,-104 223,-104 60,0 162,67 179,126 15,38 30,74 61,103 25,23 60,35 89,48 35,15 25,88 26,125 2,44 37,111 59,148 45,74 64,61 102,-9 22,-41 34,-80 84,-51 107,60 88,-55 164,-88 67,-29 115,28 193,-19l0 0 3 -92c42,-22 81,-87 131,-46 13,11 96,59 108,43 23,-30 -13,-57 -14,-87 -1,-33 86,-80 109,-104 58,-60 45,-93 49,-172 5,-65 -14,-194 19,-247 35,-56 101,7 142,16 80,17 68,-203 74,-259 11,-117 98,-158 178,-231 79,-25 101,-17 181,-1 117,24 242,128 152,-83 -40,-93 153,-29 201,-129 12,-26 -4,-68 20,-83 20,-13 112,-74 130,-73 11,1 58,67 70,79 39,39 131,79 185,93 86,22 91,-86 122,-131 45,-15 102,-86 152,-35 28,28 92,42 72,-19 -16,-47 16,-70 32,-110 36,-92 8,-209 -48,-284 10,-13 135,-12 168,-31 61,-34 60,-46 37,-109 -14,-62 -76,-78 -74,-156 2,-55 37,-96 58,-144 10,-22 35,-68 4,-83 -54,-26 -30,-101 -23,-148 14,-97 -32,-90 -80,-155 -13,-73 2,-143 75,-175 39,-17 137,-28 115,-94 -11,-32 -71,-87 -61,-118 22,-66 142,-53 142,-149 0,-69 -132,-90 -35,-187 57,-54 -9,-125 -9,-190 0,-58 10,-186 -73,-191 -71,-4 -178,14 -245,32l0 0c-13,29 -24,57 -18,76 8,27 38,6 49,18 -31,39 -62,41 -71,95 -4,24 -34,111 -65,105 0,-28 6,-48 18,-76 9,-21 -14,-44 -10,-72 6,-44 57,-75 57,-120 0,-27 -19,-73 -51,-73 -39,0 -31,10 -58,-22 0,-30 -45,-45 -48,-80l0 0z"/>
  <path class="fil3 str0" d="M21799 4375l-94 -30c-17,24 -96,54 -128,91 -14,17 -52,101 -54,101 -1,4 -21,-22 -23,-24 -76,-76 -14,-99 -52,-186 -18,-42 -98,-32 -135,-34 -149,-8 -161,-98 -266,-160 -81,-48 -119,-131 -119,-228l0 0c15,-11 25,-27 14,-30l-153 -41c-2,-1 33,-32 47,-41 31,-20 -15,-46 -15,-75 0,-14 100,-95 115,-105 82,-57 63,-21 137,9 61,18 61,35 126,18 96,-25 168,-71 206,43 17,51 83,43 125,54 73,19 3,139 43,183 18,19 68,-3 58,41 -11,45 5,72 23,113 25,36 47,16 80,30 24,10 30,25 49,43 13,13 46,31 20,40 -15,5 -102,36 -98,50 3,12 20,15 22,28 7,39 -1,27 39,35 27,5 30,52 33,76l0 0zm198 149c22,-51 48,-104 -15,-104 -62,0 -48,-44 -30,-80 11,-21 19,-34 10,-57 -11,-32 -47,-45 -54,-67 -11,-19 -54,-95 -31,-114 41,-33 92,52 113,76 8,10 67,20 69,5 2,-15 -62,-34 -62,-49 27,-5 17,-50 17,-69 -25,0 -36,48 -74,1 -27,-34 -74,-77 -108,-25 -67,100 -22,-102 -80,-73 -90,45 0,-89 -9,-125 -26,0 -71,25 -71,-28 0,-44 38,-137 -24,-165 -24,-11 -48,-2 -68,-17 -5,-3 -7,-88 -7,-103 0,-76 16,-55 82,-64 71,-10 153,-59 191,-119 50,-78 -7,-97 -7,-162 32,0 46,16 81,0 27,-12 76,-56 97,-13 20,41 59,9 91,1 -42,0 -61,-38 -61,-77 42,-10 103,13 133,-29 39,-55 -4,-48 41,-7 17,16 58,1 79,7 33,9 43,64 100,48 42,-12 71,-59 124,-77 30,-7 66,7 89,-11 38,-30 92,-22 118,-43 15,-12 43,-69 64,-74 0,63 -30,91 -16,157 12,56 25,78 54,125 25,41 -24,20 -48,65 -17,32 -33,51 -70,63 -61,19 -32,35 -48,85 -18,57 -25,76 -25,140 52,111 75,173 185,246 125,84 297,105 453,106 123,39 310,18 437,5l278 -29c94,-10 182,-49 273,-60 90,-33 192,-64 296,-84l0 0 20 87c20,54 113,71 150,117 62,77 23,115 23,206l-3 11c21,15 49,21 68,40 25,24 61,97 45,131 -15,31 -77,49 -61,95 8,25 33,45 52,64 28,28 20,93 35,131 20,49 81,78 102,131 10,47 43,61 57,100 11,31 16,79 18,111 3,56 10,50 52,63 30,9 55,30 86,40 55,17 100,-26 155,8 70,44 64,124 103,188 28,47 177,28 234,49 132,13 140,6 250,-75 66,-48 41,-110 120,-142 97,-39 30,-58 68,-127 14,-26 85,-10 114,-19 58,-18 90,-83 151,-83 67,0 74,-87 103,-132 8,-92 16,-179 120,-201 72,-15 119,50 203,26 137,-39 97,83 208,89 37,2 94,-26 126,-3 26,19 57,66 82,78 4,5 6,10 12,11 66,93 188,-84 266,19 67,88 174,40 268,87l0 0c1,43 -11,65 -18,105 -8,46 -13,119 -7,167 6,45 48,84 82,109 3,29 15,49 4,83 3,17 -9,104 -27,106 -1,5 -25,25 -29,26 -2,10 -34,29 -43,38 -36,41 -17,76 -7,120 5,22 24,79 12,101 -20,37 24,95 48,123 42,49 66,88 88,148 -13,39 40,62 7,106 -17,23 -42,77 -42,105 48,16 19,203 41,250 13,29 69,82 63,109 -9,39 -39,87 -55,130 -41,56 -126,104 -158,162 -36,64 -58,67 -74,145 -20,95 -54,137 -54,240 0,114 80,190 87,287 38,68 40,138 49,214 4,35 -9,73 -9,109 0,31 8,58 8,89l3 72 15 154 54 27c28,48 36,61 37,121l2 113c1,64 29,123 39,187 10,65 35,138 35,203 31,81 147,79 163,157 13,60 -16,97 -29,150 -9,38 -20,82 -9,121 11,41 23,50 5,91 -26,59 1,82 29,130 28,48 41,80 41,140 24,114 -96,156 -188,202 -91,45 -174,13 -264,-5 -53,-10 -131,-26 -183,-10 -45,14 -62,74 -80,114 -47,101 -106,24 -156,91 -51,69 -58,127 -58,216 23,48 -52,47 -29,74 46,54 -16,140 -45,190 -29,51 -2,98 -24,148 -31,69 -137,90 -133,172 1,33 26,65 43,93 26,44 -39,64 -58,95 -4,35 -143,36 -147,82 -1,9 34,41 36,63 5,53 -10,106 -10,160 0,38 -13,75 -54,81 -16,2 -98,93 -99,105 -1,12 21,52 26,63 11,25 -14,78 -22,103 -6,31 5,143 -47,123 -43,-17 -103,-2 -153,-21 -182,-72 -372,-124 -565,-160l-29 -11c-2,-21 1,-70 -27,-77 -85,-19 -47,-83 -95,-137 -37,-42 -86,-59 -142,-66 -171,-21 -339,-68 -513,-68 0,1 0,1 -2,1l-1 1c0,46 87,145 112,187 57,97 -77,134 -136,146 -37,6 -60,-9 -95,-9 -20,0 -134,104 -154,124 -30,30 -118,39 -159,35 -44,-5 -68,11 -103,35 -46,30 -113,6 -167,30 -56,25 -2,94 -61,123 -40,14 -83,3 -122,14 -39,11 -88,125 -99,166 -18,69 -7,146 -7,216 -157,0 -105,175 -277,89 -127,-64 -257,263 -390,93 -31,-28 -68,-36 -104,-8 -67,50 -102,67 -191,52 -78,-13 -159,-48 -237,-68l-85 -25c-2,9 -8,17 -17,21 -67,29 -156,-53 -209,21 -87,123 -219,79 -356,123 -72,23 -102,44 -148,101 -11,14 -58,101 -106,74 -13,-7 -27,-16 -42,-24l1 -88c-19,-94 -33,-128 -104,-29l-114 158c-60,84 -123,34 -212,38 -153,7 -37,147 -165,174l-115 -19c-52,38 -116,106 -118,163l0 0 -47 -35c-11,-8 -18,-24 -25,-35 -6,-10 -15,-18 -19,-30 -9,-28 -8,-53 -8,-83 5,-76 73,-152 55,-225 -18,-73 -140,-65 -140,-153 0,-53 33,-98 33,-149 0,-61 -96,-97 -37,-155 -1,-1 -1,0 -2,0 28,-12 86,-63 113,-86 32,-27 40,-29 83,-39 32,-7 229,9 229,-34 0,-37 -27,-67 -35,-101 -1,0 -4,-3 -5,-4 -46,0 -72,-4 -111,-26 -14,-118 -299,-39 -231,-126 24,-31 32,-59 49,-90 29,-50 81,-24 128,-36 65,-17 98,-81 127,-134 16,-21 26,-101 16,-125 -18,-43 48,-40 74,-46 90,-19 143,-116 143,-199 -75,-18 -102,-49 -109,-126l-18 -192 -2 0c-36,110 -140,178 -233,235 -54,33 -64,-19 -93,-56 -24,-31 24,-97 36,-131 6,-76 -16,-118 -64,-173 -48,-54 -22,-118 34,-154 17,-11 44,-63 61,-84 26,-32 80,-74 80,-118 0,-59 -62,-84 -72,-139 -36,-86 -57,-181 -131,-244 -67,-57 -157,-97 -236,-138 -46,-24 -93,-25 -141,-45 -35,-15 -47,-42 -75,-60 -29,-18 -79,-30 -102,-51 -60,-15 -139,-33 -196,-56 -60,-24 -90,-44 -156,-30 -72,15 -246,166 -212,-7 9,-45 12,-117 32,-157 0,-85 128,-187 182,-245 89,-97 147,-65 272,-68 77,-2 167,-22 223,-76 41,-39 85,-176 14,-203 -40,-15 -283,24 -318,54 -35,30 -96,132 -130,119 -71,-25 -120,6 -88,-96 21,-68 30,-126 16,-198 3,-42 0,-121 -20,-160 -25,-48 -83,-77 -107,-124 -17,-34 -33,-67 -53,-99l0 0 3 -92c42,-22 81,-87 131,-46 13,11 96,59 108,43 23,-30 -13,-57 -14,-87 -1,-33 86,-80 109,-104 58,-60 45,-93 49,-172 5,-65 -14,-194 19,-247 35,-56 101,7 142,16 80,17 68,-203 74,-259 11,-117 98,-158 178,-231 79,-25 101,-17 181,-1 117,24 242,128 152,-83 -40,-93 153,-29 201,-129 12,-26 -4,-68 20,-83 20,-13 112,-74 130,-73 11,1 58,67 70,79 39,39 131,79 185,93 86,22 91,-86 122,-131 45,-15 102,-86 152,-35 28,28 92,42 72,-19 -16,-47 16,-70 32,-110 36,-92 8,-209 -48,-284 10,-13 135,-12 168,-31 61,-34 60,-46 37,-109 -14,-62 -76,-78 -74,-156 2,-55 37,-96 58,-144 10,-22 35,-68 4,-83 -54,-26 -30,-101 -23,-148 14,-97 -32,-90 -80,-155 -13,-73 2,-143 75,-175 39,-17 137,-28 115,-94 -11,-32 -71,-87 -61,-118 22,-66 142,-53 142,-149 0,-69 -132,-90 -35,-187 57,-54 -9,-125 -9,-190 0,-58 10,-186 -73,-191 -71,-4 -178,14 -245,32l0 0z"/>
  <path class="fil4 str1" d="M1451 5290c36,-19 90,-28 118,-56 24,-24 33,-73 73,-77 44,-5 49,-21 99,-14 38,5 53,6 87,-17 32,-21 -9,-23 -22,-49 -3,-6 10,-10 14,-10 45,0 59,50 78,60 13,6 82,-12 70,6 -17,24 -45,140 15,116 61,-25 52,-1 109,-1 -34,68 -98,22 -132,66 -38,49 -17,77 -88,70 -42,-4 -112,-12 -128,40 -15,47 -126,93 -176,93 -120,0 55,-90 88,-106 28,-14 54,-18 26,-39 -11,-8 -36,-51 -42,-51 -14,0 -68,27 -89,33 -44,11 -89,39 -132,44 -96,12 -34,-43 10,-76l23 -31zm237 -219c-17,11 -40,5 -59,5 -15,0 -9,20 0,26 11,7 20,7 34,7 12,0 18,8 28,9 8,1 25,5 30,-3 6,-10 -6,-40 -20,-42l-13 -2zm838 861c0,-14 -2,-29 -2,-43 0,-8 -3,-19 -7,-26 -4,-8 31,-40 37,-33 5,5 10,13 15,19 4,5 10,10 14,16 3,4 5,11 7,15 3,7 10,8 10,17 0,12 -10,21 -13,32 -5,17 -33,18 -47,22l-15 -19zm-330 -314c8,-5 10,-18 13,-27 3,-10 8,-21 10,-31 1,0 1,0 2,-1 6,1 13,32 10,38 -2,4 -4,11 -4,15 0,6 -2,7 -3,11 -2,1 -7,6 -9,8 -8,5 -12,7 -21,4l3 -16zm247 48c-7,0 -15,-2 -21,-5 -10,-4 -23,-2 -30,7 -8,9 -25,43 -2,43 26,0 48,-10 66,-28l-12 -17zm274 417c-5,12 -19,21 -32,22 -13,2 -21,-1 -27,14 -13,30 25,12 36,4 8,-6 16,-10 26,-11 10,-2 15,-14 7,-21l-10 -7zm263 -4c-13,9 -34,7 -48,5 -8,-1 -16,2 -24,0 -9,-1 -34,-15 -37,3 -2,12 14,26 24,29 12,4 20,2 32,-2 15,-6 21,6 35,5 14,0 28,-11 28,-25l-10 -15zm189 298c33,-11 29,-47 51,-66 12,-10 28,-12 42,-19 17,-8 9,-28 19,-41 1,0 1,0 1,0 12,1 21,8 35,8 28,0 -23,34 -29,40 -17,15 -62,53 -62,77 0,19 -12,15 -26,20 -19,7 -21,25 -43,0l12 -20zm109 2902c0,-16 -21,-43 -37,-43 -26,0 -35,-1 -55,-19 -20,-17 -39,-15 -57,4 -20,20 21,19 34,23 28,9 57,24 80,37 5,3 6,14 7,20 2,7 35,22 44,31 16,16 100,8 70,-16 -11,-9 -26,0 -38,-1 -16,-1 -22,-13 -34,-21l-14 -15zm11929 -7605c28,-48 -51,-152 43,-172 33,-7 130,-74 135,-6 1,15 -63,35 -55,73 5,25 7,41 -3,65 -5,12 -43,19 -32,38 7,12 16,24 11,39 -3,9 -18,10 -25,10 -19,1 -20,23 -34,25 -18,3 -40,-25 -34,-42l-7 -32zm-362 -415c8,2 40,-7 47,-12 12,-10 7,-21 7,-35 0,-17 5,-26 9,-42 4,-13 -55,-14 -67,-14 -23,0 -38,12 -36,35 1,11 7,18 7,28 0,14 -18,35 -23,49 -12,31 22,14 35,7l21 -17zm-726 178c5,-18 -6,-35 -7,-53 -2,-17 1,-38 -14,-51 -14,-13 -35,-10 -50,-1 -14,8 -8,23 -7,35 4,40 -21,45 -47,66 -19,15 -15,34 -11,53 7,32 0,55 39,55 28,0 71,-53 88,-73l10 -31zm-5333 1122c-19,0 -34,-19 -50,-28 -26,-14 -192,40 -196,59 13,13 46,16 64,35 55,55 75,2 136,5 35,1 51,24 80,35 20,8 52,-4 75,1 16,3 36,10 51,11 33,2 -17,-48 -27,-53l-91 -44 -43 -21zm56 9868c0,-20 -11,-36 -25,-50 -6,-6 -20,-8 -27,-3 -7,5 -9,14 -7,21 4,13 3,35 3,49 0,6 2,16 9,18 9,2 32,-5 41,-7l6 -28zm240 -101c7,-13 18,-29 14,-45 -3,-11 2,-34 -11,-40 -22,-10 -28,30 -31,42 -3,13 -2,19 0,32 1,6 3,12 5,18 1,5 1,13 5,18l19 -24zm3044 795c-38,-36 -121,-66 -145,-105 -110,-179 160,-100 244,-73 69,23 129,52 203,52 66,0 96,35 142,68 9,61 14,103 -18,159 -27,3 -55,-48 -80,-65 -44,-31 -92,69 -151,55 -30,-7 -55,-31 -83,-41l-97 -34 -16 -16zm3185 2224c38,-10 5,-94 43,-79 12,4 26,20 35,29 16,15 60,41 81,53 40,23 69,30 116,21 38,-7 69,-35 105,-35 0,21 -81,50 -94,89 -3,9 18,72 22,86 14,43 -37,-30 -44,-35 -28,-18 -25,-21 -60,-31 -20,-6 -40,-8 -57,-21 -22,-18 -23,-47 -50,-62 -15,-8 -48,-6 -65,-2l-34 -14zm-719 1024c-57,-5 -79,-62 -142,-19 -61,42 -71,-22 -101,-33l-79 -28c-35,-12 -57,-54 -84,-63 -40,-13 -88,69 -143,69 -29,0 -46,-27 -66,-27 -39,0 -47,40 -98,30 -52,-11 -46,-62 -74,-74 -60,-25 -30,-37 -70,-69 -45,-36 -77,-55 -39,-113 32,-48 39,-70 -20,-98 -53,-20 -61,-133 -87,-179 -16,-28 14,-70 14,-105 0,-20 -15,-102 -3,-102 7,-22 58,8 62,-65 2,-32 -8,-69 -1,-99l1 -1c21,0 100,56 122,67l255 134c67,35 118,41 192,38 61,-3 53,6 53,74 0,35 5,72 33,95 34,28 -8,113 35,131 57,23 92,26 147,58 49,14 63,60 115,75 72,20 151,-10 224,4 39,7 98,47 98,91 -50,0 -76,8 -79,61 -2,39 -49,50 -63,80 -9,19 12,50 -2,64 -8,8 -31,16 -42,21 -30,12 -19,43 -61,45 -34,1 -33,-62 -79,-62l-20 1zm1436 -455c-24,-3 -28,-37 -23,-55 4,-13 -1,-19 -8,-30 -7,-10 -7,-26 -7,-38 14,0 46,17 60,23 45,20 68,-13 97,-39 28,-26 30,-15 37,13 8,32 14,95 -33,95 -12,0 -38,7 -45,17 -12,19 -20,28 -47,28l-30 -14zm165 -2257c0,-75 20,-118 45,-184 7,-19 12,-68 25,-78 13,-11 52,-56 64,-56 0,29 -49,114 8,118 12,1 96,20 79,41 -13,16 -74,1 -94,6 -35,7 -68,76 -74,109 -3,17 -21,36 -9,53 5,8 29,29 29,35 -27,0 -41,18 -40,44 1,12 5,23 -13,22 -28,-1 -16,-50 -15,-66l-5 -44zm318 -108c11,-28 5,-83 5,-113 18,-2 63,1 76,-11 12,-11 35,-64 35,-79 2,0 2,-1 4,-2 6,30 38,48 46,78 11,47 38,16 76,16 0,19 7,90 -29,70 -23,-12 -32,-37 -61,-31 -29,6 -69,46 -88,70 -6,7 -63,90 -74,44l11 -42zm11281 -8716c1,43 -11,65 -18,105 -8,46 -13,119 -7,167 6,45 48,84 82,109 3,29 15,49 4,83 3,17 -9,104 -27,106 -1,5 -25,25 -29,26 -2,10 -34,29 -43,38 -36,41 -17,76 -7,120 5,22 24,79 12,101 -20,37 24,95 48,123 42,49 66,88 88,148 -13,39 40,62 7,106 -17,23 -42,77 -42,105 48,16 19,203 41,250 13,29 69,82 63,109 -9,39 -39,87 -55,130 -41,56 -126,104 -158,162 -36,64 -58,67 -74,145 -20,95 -54,137 -54,240 0,114 80,190 87,287 38,68 40,138 49,214 4,35 -9,73 -9,109 0,31 8,58 8,89l3 72 15 154 54 27c28,48 36,61 37,121l2 113c1,64 29,123 39,187 10,65 35,138 35,203 31,81 147,79 163,157 13,60 -16,97 -29,150 -9,38 -20,82 -9,121 11,41 23,50 5,91 -26,59 1,82 29,130 28,48 41,80 41,140 24,114 -96,156 -188,202 -91,45 -174,13 -264,-5 -53,-10 -131,-26 -183,-10 -45,14 -62,74 -80,114 -47,101 -106,24 -156,91 -51,69 -58,127 -58,216 23,48 -52,47 -29,74 46,54 -16,140 -45,190 -29,51 -2,98 -24,148 -31,69 -137,90 -133,172 1,33 26,65 43,93 26,44 -39,64 -58,95 -4,35 -143,36 -147,82 -1,9 34,41 36,63 5,53 -10,106 -10,160 0,38 -13,75 -54,81 -16,2 -98,93 -99,105 -1,12 21,52 26,63 11,25 -14,78 -22,103 -6,31 5,143 -47,123 -43,-17 -103,-2 -153,-21 -182,-72 -372,-124 -565,-160l-29 -11c-2,-21 1,-70 -27,-77 -85,-19 -47,-83 -95,-137 -37,-42 -86,-59 -142,-66 -171,-21 -339,-68 -513,-68 0,1 0,1 -2,1l-1 1c0,46 87,145 112,187 57,97 -77,134 -136,146 -37,6 -60,-9 -95,-9 -20,0 -134,104 -154,124 -30,30 -118,39 -159,35 -44,-5 -68,11 -103,35 -46,30 -113,6 -167,30 -56,25 -2,94 -61,123 -40,14 -83,3 -122,14 -39,11 -88,125 -99,166 -18,69 -7,146 -7,216 -157,0 -105,175 -277,89 -127,-64 -257,263 -390,93 -31,-28 -68,-36 -104,-8 -67,50 -102,67 -191,52 -78,-13 -159,-48 -237,-68l-85 -25c-2,9 -8,17 -17,21 -67,29 -156,-53 -209,21 -87,123 -219,79 -356,123 -72,23 -102,44 -148,101 -11,14 -58,101 -106,74 -13,-7 -27,-16 -42,-24l1 -88c-19,-94 -33,-128 -104,-29l-114 158c-60,84 -123,34 -212,38 -153,7 -37,147 -165,174l-115 -19c-61,44 -137,129 -113,190 17,45 60,67 74,119 13,47 -5,105 -36,139 -46,51 -61,57 -86,117 -16,37 -5,75 -5,113 0,7 -2,13 -6,17l51 47c-16,39 -52,148 -34,186 75,158 -10,190 -158,213 -47,7 -133,36 -166,71 -42,45 -11,133 -25,189 8,49 -7,74 -52,88 -17,5 -111,24 -118,3 -19,-3 -22,-123 -27,-143 -20,-83 -238,-2 -277,33 -61,53 -96,101 -180,56 -51,-2 -105,-91 -141,-121 -41,-35 -54,-66 -87,7 -38,85 -112,164 -144,245 -21,52 9,126 -7,177 -8,25 -199,78 -238,83 -54,7 -77,-76 -125,-85 -52,-10 -85,64 -141,76 -66,15 -96,-7 -150,-42 -29,-19 -35,-63 -38,-94 -1,-8 -10,-65 -22,-47 -18,26 -31,45 -56,66 -70,61 -137,105 -163,204l0 0c-40,1 -92,20 -136,27 -85,12 -68,-58 -101,-105 -6,-9 -46,-47 -42,-50 25,-21 40,-18 49,-53 43,-65 14,-116 -21,-172 -25,-38 -41,-117 20,-127 43,-7 44,-32 70,-39 32,-9 118,40 150,53 6,3 55,22 55,5 -2,-1 0,0 -2,-1 -1,-3 -93,-65 -108,-86 -33,-47 -28,-86 -88,-113 -44,-20 -93,21 -136,18 -17,-1 -2,-34 -4,-47 -13,-82 -127,-36 -173,-47 -42,21 -86,3 -102,65 -5,18 -20,84 -29,78 -90,-53 -133,-80 -248,-77 -107,4 -80,94 -143,110 -52,13 -170,36 -219,24 8,-32 113,-72 144,-96 25,-19 89,-117 96,-146 -94,0 -76,88 -122,137 -73,77 -167,-59 -207,-6 -40,53 -6,63 -78,101 -37,30 -22,90 -22,128l-1 1 -1 1 -1 1c-22,0 -173,-97 -196,-114 -78,-55 -161,-43 -232,10 -55,41 -102,38 -167,38 -99,0 -119,58 -169,124 -36,0 -53,-35 -81,-35 -43,0 -60,36 -95,-2 -31,-15 -185,-77 -196,-100 -19,-38 61,-126 -15,-162 -78,-37 -31,-44 -76,-93 -50,-55 -140,-147 -222,-91 -41,28 -22,-38 -44,-50 -36,-20 -71,-10 -86,-67l42 -13c5,-27 -23,-64 -18,-68 16,-12 41,-40 56,-48 36,-18 131,6 159,26 39,27 59,53 109,61 58,9 41,106 73,100 30,-6 25,-48 50,-48 31,0 39,35 80,19 41,-20 74,-43 63,-93 -9,-43 52,-5 71,-1 9,2 42,3 42,14l5 54c1,15 0,42 6,54 20,48 56,9 64,-26 9,-39 2,-36 35,-58 37,-24 34,-7 58,22 36,45 54,58 103,87 69,41 101,-15 148,-53 13,-11 29,-1 43,-9 35,-21 33,-51 13,-83 -22,-35 11,-52 24,-86 10,-17 -7,-86 -17,-104 -7,-12 -32,-74 -28,-83 26,0 64,68 101,54 32,-13 11,-95 20,-100 20,-10 61,16 81,-3 28,-26 45,-31 60,-70 10,-28 28,-132 24,-160 -33,0 -47,96 -55,119 -22,61 -26,82 -98,82 -44,0 -42,-6 -50,-41l-1 -1c-42,0 -50,5 -79,-25 -29,-34 -36,-57 -80,-77 -43,-19 -62,22 -102,0 -14,-8 -39,-23 -17,-41 9,-7 31,5 32,1l2 0c0,-25 -50,-63 -74,-69 -7,-2 -43,-5 -44,-11 -1,-12 2,-29 2,-42 1,0 2,-2 2,-4 31,-8 52,-12 84,-2 17,5 110,62 99,21 -6,-22 -18,-46 -32,-63 -34,-43 -87,8 -120,-13 -24,-15 -48,-4 -74,4 -3,10 30,37 21,66 -5,19 -59,34 -76,38 -60,14 -96,-42 -149,-19 -43,19 -87,63 -137,55 -44,-7 -86,-42 -106,-79 -16,-29 -52,-3 -77,-1 -47,89 69,47 67,78 -2,41 -73,38 -71,79 2,32 28,32 40,50 18,28 -61,48 -80,43 -32,-8 -77,-86 -108,-62 -23,17 -6,186 4,211 10,26 -6,31 -7,21 -17,-4 -32,-31 -47,-41 -17,-12 -41,-10 -55,-23 -51,-47 -23,-33 -74,14 -36,32 -40,-23 -40,-49 0,-18 23,-71 5,-74 -54,-8 -64,23 -74,71l-1 1c-9,0 -14,-8 -20,-15 -15,-41 -10,-63 -43,-95 -24,-24 -41,-66 -34,-100 22,-91 -47,-111 -88,-181 -20,-35 -5,20 0,30 13,24 5,35 12,57 9,29 34,32 50,51 32,37 -31,45 -47,58 -2,32 -13,59 11,84 12,12 32,24 26,45 -17,57 -85,63 -23,130 11,12 73,43 74,44 17,52 31,106 69,146 29,30 130,108 11,98 -72,-6 -150,-84 -194,5 -16,0 -36,-42 -55,-53 -24,-14 -61,-22 -25,-51 32,-26 -80,-135 -97,-135 -7,28 37,134 -27,107 -38,-16 -99,-5 -101,-65 -31,-82 -61,-165 -78,-252 -2,1 0,0 -2,1l-5 161c-2,62 43,104 43,142 -68,14 -46,-19 -109,-43 -57,-22 -107,22 -130,14 -30,-10 -58,-14 -89,-2 -50,19 -107,65 -161,65 -9,0 -85,-106 -95,-123 -14,-25 29,-76 -4,-77 -46,-3 -26,19 -28,64 -2,36 -45,95 -59,132 -49,134 -100,203 -54,348 2,28 16,113 29,137 13,23 39,25 44,56 12,78 1,129 75,179 46,31 48,35 76,84 20,34 77,102 115,111 -66,0 -120,-73 -185,-47 -39,16 -19,14 -38,-14 -9,-12 -15,-19 -29,-25 -32,-14 -101,26 -101,24 -4,-19 -19,-41 -31,-56 -14,-17 -41,-28 -47,-49 -6,-23 7,-65 -10,-81 -24,-22 -39,-43 -36,-79 -11,-45 -10,-237 -68,-247 0,-7 75,-6 99,-36 30,-39 54,-98 56,-146 4,-100 -32,-196 -26,-296 -34,-114 -94,-177 -167,-264 -38,-45 -159,-138 -216,-152 0,-22 4,-42 -2,-63 -8,-31 -27,-37 -37,-62 -27,-47 -52,-39 -28,-83 21,-38 41,-62 18,-114 -31,-69 48,-172 104,-215 68,-52 144,-8 197,-55 8,-7 69,-70 44,-77 -123,-31 -17,-63 28,-136 20,-33 104,-105 69,-105 -60,0 -127,97 -129,91 -3,-11 -35,-74 -46,-74 -39,0 -12,82 -3,98 41,71 -182,76 -234,118 -68,54 9,73 53,73 -5,14 -32,23 -41,41 -6,11 8,41 5,57 -2,10 -18,11 -23,19 -23,31 -56,54 -56,97 0,15 15,267 -45,170 -25,-41 -103,-86 -121,-123 -74,-35 -135,-112 -206,-155 -64,-39 -117,-78 -190,-105 -119,-45 -311,-123 -393,24 0,1 -12,17 -15,9 -24,-61 31,-111 51,-157 10,-22 206,-5 238,-1l32 4c-10,-30 -96,-45 -124,-48 -58,-26 -83,-2 -137,9 -48,10 -42,-57 -80,-66 23,0 47,4 68,-2 19,-5 -2,-25 29,-33 58,-14 -12,-76 5,-112 23,-51 -15,-74 38,-67 64,8 124,-32 160,-79 47,-62 67,-160 118,-214 27,-29 72,-45 93,-69 5,-6 -38,4 -41,4 -41,-5 -67,27 -88,59l-98 149c-14,21 -164,114 -169,46 -7,-92 -22,-109 -83,-170 -28,-28 -44,-68 -34,-8 7,44 39,67 69,91 37,30 10,218 -45,238 -52,19 -126,-28 -71,46 30,40 26,92 9,139 -62,90 -152,70 -243,61 -118,-12 -157,43 -259,69 -24,6 -80,-43 -87,-63 -8,-25 -2,-33 -27,-50l-76 -54c-47,-34 -133,-152 -150,-206 -8,-61 -59,-143 -95,-191 -49,-64 -87,-80 -165,-80 -43,0 -104,11 -142,-10 -24,-13 -27,-31 -58,-35 -32,-5 -68,5 -102,2 -91,0 -350,-12 -395,-94 -4,-8 -78,-20 -94,-28 -49,-23 -56,82 -120,56 -56,-22 -107,-96 -152,-136 -92,-82 -144,-9 -93,-161 -114,0 -126,96 -222,123 -104,75 -162,10 -261,39 -20,6 -43,39 -44,37 -4,0 -92,-73 -116,-81 -39,-14 -147,-22 -174,11 -24,30 -35,28 -73,28 0,0 -3,-3 -4,-3 0,-108 26,-98 -55,-187l-192 -211c-50,-14 -63,-18 -61,-71 2,-35 44,-25 39,-48 -3,-11 -15,-40 -28,-41 -16,-1 -73,10 -73,-14 0,-33 -56,-39 -33,-53 10,-6 36,-24 45,-15 9,9 51,47 42,8 -7,-28 -23,-51 -33,-77 -14,-40 -58,-30 -92,-37 -64,-14 -13,-54 -41,-84 -26,-41 -105,-61 -107,-105 -1,-22 -133,-40 -158,-47 -25,-6 -39,65 -62,78 -22,13 -36,9 -47,38 -14,39 33,140 33,189 0,39 28,53 47,79 -44,11 -129,36 -173,36 -64,0 -123,-12 -181,19 -12,6 -69,65 -74,49 -18,-60 -57,-73 -96,-117 -68,-45 -125,-62 -207,-56 -75,5 -98,2 -98,-83 0,-25 -64,-10 -78,-30 -26,-36 -19,-82 -52,-122 -9,-11 -50,-49 -53,-58 -13,17 47,95 56,112 15,29 23,80 46,101 16,15 47,49 5,55 -42,6 -64,1 -104,24 -55,45 -122,73 -177,119 -31,26 -56,108 -71,75l-35 -81c0,52 -2,147 69,147 49,0 -9,153 -2,181 11,46 -42,25 -61,51 -33,44 -10,121 -47,121 -33,0 -63,13 -92,13 -33,0 -40,-56 -92,-24 -54,33 -54,55 -125,55 -53,0 -114,21 -164,-7 -86,29 -107,-11 -178,-11 -85,0 -56,-43 -120,-56 -45,-9 -71,-11 -115,11 -69,35 -116,-8 -185,3 -34,5 -78,31 -111,21l-94 -31c-5,-12 23,-71 29,-86 17,-42 -54,-47 -79,-57 0,-10 62,-90 73,-103 36,-42 95,-25 145,-44 92,-35 -6,-262 -12,-326 -44,-164 -126,-322 -194,-476 -20,-44 -61,-94 -67,-143 -40,-72 -94,-137 -141,-205 -36,-53 -96,-139 -151,-173 -28,-17 -101,-81 -114,-110 -41,-31 -54,-35 -106,-35 -44,0 -54,-37 -75,-66 -34,-46 -157,-114 -213,-121 -61,-8 -108,-44 -166,-54 -74,-12 -97,62 -110,113 -67,0 -192,-74 -236,-127 -55,-63 -168,-30 -217,-109 -62,-101 -69,33 -166,20 -52,-7 -74,-37 -138,-37 -102,0 -135,-14 -220,-54 -47,-22 -196,-13 -219,-83 83,0 213,6 196,-105 -25,-164 -22,-104 97,-99 70,3 140,19 184,-53 38,-61 24,-37 87,-15 54,19 275,-31 332,-55 41,-17 139,-38 168,-59 33,0 164,24 187,11 60,-33 58,-95 133,-95 118,0 286,45 378,-47 71,-71 139,-17 221,-24 62,-9 85,-36 128,-76 26,-24 60,-2 90,4 85,17 155,-61 224,-49 57,9 86,73 136,91 95,33 123,-20 182,74 53,84 154,-60 171,-100 23,-51 123,-278 100,-328 22,-34 7,-132 -26,-158 -44,-34 -96,-9 -86,-77 5,-33 -4,-81 -9,-113 -31,-192 -181,-291 -363,-291 -64,0 -136,60 -136,-39 -9,-7 -29,-32 -36,-41 -15,-3 -34,-29 -50,-37 -20,-10 -51,-1 -74,-4 -70,-9 -103,-64 -162,-88 -41,-16 -71,18 -100,15 -11,-1 -88,-68 -119,-78 -91,-30 -147,-1 -234,10 -73,73 15,85 -5,130 -21,48 -80,20 -101,77 -14,38 -11,72 -11,111 0,48 -51,68 -61,113 -9,42 -101,55 -121,114 -11,32 1,69 -5,92 -11,2 -94,-19 -105,-23 -34,-15 -1,-62 -23,-77l0 -3c60,-30 50,-93 35,-148 -22,-79 -1,-150 -36,-230 0,-42 -20,-116 -62,-134 -68,-28 58,-55 75,-63 117,-48 92,-197 -34,-160 -79,23 -113,55 -197,37 -34,-7 -22,-47 -61,-66 -35,-18 -70,-25 -101,2 -7,6 -27,45 -28,45 -8,-7 -1,-58 -1,-70 0,-17 5,-34 16,-47 47,-55 6,-108 -43,-146 26,0 103,3 111,-25 10,-6 49,-30 52,-38 70,17 58,186 181,77 73,-65 17,-211 -7,-290 -33,-106 -36,-107 50,-179 51,-43 173,-130 243,-130 0,63 -57,126 -73,188 -18,69 -72,163 -72,231 0,48 63,80 93,107 36,34 90,-14 90,-60 0,-33 111,-143 143,-160 34,-17 8,71 -3,83 -56,65 -51,39 -56,122 50,80 116,63 191,43 30,-8 154,-51 154,-88 38,0 87,25 129,28 43,3 90,-12 126,-12 10,39 13,121 54,140 51,23 100,18 155,21 65,-10 160,-25 208,-76 47,-50 84,-14 138,-30 109,-32 227,-155 346,-105 79,33 129,10 101,102 -16,54 -113,-70 -148,11 -12,29 -46,96 -46,125 67,0 96,-14 164,19 12,6 153,122 131,86 -18,-29 -40,-49 -59,-76 -16,-23 -109,-74 -103,-91 9,-27 145,-8 172,-61 29,-16 34,-71 62,-80 12,-4 72,15 72,-6 -47,-12 -41,-34 -107,-34 -54,0 -59,-68 -104,-84 -38,-13 -73,-16 -105,-44 -54,-48 -22,-58 -105,-8 -29,17 -36,8 -61,-5 -93,-44 -159,5 -249,5 0,-54 132,-121 132,-201 0,-56 219,-41 219,-122 -66,0 -112,14 -176,35 -76,0 -129,71 -115,-60 7,-67 -80,40 -92,61 -10,18 -76,13 -70,-24 7,-42 -26,-2 -36,9 -41,45 -30,168 -84,178 -38,8 -295,33 -266,-13 11,-17 49,-89 45,-104 -47,35 -103,54 -156,80 -90,45 -91,32 -176,15 3,-14 73,-14 75,-53 3,-36 37,-83 34,-98 -6,-30 -15,-39 2,-69 27,-46 31,-26 31,-82 -2,1 -2,2 -3,4 12,-44 26,-40 61,-53 41,-15 64,-49 89,-83 60,-79 107,-98 189,-151l136 -89c27,-18 185,-69 185,-95 -20,-5 -106,9 -136,9 -66,0 -57,40 -88,77 -15,18 -74,30 -96,34 -56,9 -74,41 -123,54 -59,16 -108,-43 -160,-52 -57,-10 0,196 -129,117 -60,-37 -51,4 -104,10l-194 38c-10,2 -26,23 -37,29 -63,30 -187,116 -205,170 -51,0 -93,-26 -129,-26 -15,62 -145,91 -195,117 -112,58 -183,128 -312,90 -43,-43 -49,-68 -117,-65 -51,2 -64,-25 -104,-50 -78,-48 -262,-35 -237,90 16,82 22,30 -44,91 -84,78 -159,-44 -231,11 -46,36 -125,21 -178,14 -12,-2 -20,-89 -20,-110 0,-16 11,-59 3,-68 -38,-43 -54,-118 -111,-118 0,-24 48,-41 48,-63 36,12 64,36 101,1 33,-31 49,-108 13,-142 -29,-33 -87,-50 -77,-106 7,-42 34,-123 -32,-113 -66,10 -26,-16 -46,-49 -6,-9 -35,-8 -45,-18 -13,-13 11,-44 14,-58 13,-58 57,-104 37,-169 -18,-60 6,-14 34,-57 12,-18 6,-45 7,-65 22,-53 62,-100 91,-146 35,-55 43,-55 -4,-110 -19,-23 -32,-58 -34,-88 -1,-21 -15,-37 -21,-57 -91,-98 17,-83 34,-164 3,-14 -21,-39 -10,-50 27,-30 48,-37 38,-85 -24,-113 95,-2 95,-91 0,-44 -37,-35 7,-77 36,-34 74,-63 108,-104 58,-77 94,-3 158,-3 70,0 24,-117 24,-149 31,0 104,-24 123,-19 0,82 102,53 102,-34 23,0 52,46 87,53 79,16 107,-54 177,-54 40,0 110,7 146,21 64,23 77,72 91,136 16,76 67,-7 123,-7 3,0 -87,-34 -96,-63 -17,-55 -23,-53 -72,-79 -28,-15 -51,-41 -33,-64 29,-37 -11,-55 -11,-88 0,-22 21,-155 51,-147 22,6 39,22 64,27 69,15 -22,21 -22,65 0,72 150,-28 196,6 20,14 161,0 197,0 -30,-15 -45,-42 -80,-49l-108 -23c-24,-5 75,-79 17,-56 -82,33 -52,-23 -52,-77 13,-62 11,-58 79,-68 13,-2 106,34 81,7 -21,-22 -57,-77 -30,-93 54,-34 39,-10 66,26 40,54 68,9 94,-22 10,-12 61,15 76,18 6,1 8,143 81,82 31,-26 121,2 170,-12 64,-19 87,-59 135,-99 33,-28 38,-67 74,-31 56,56 33,-20 112,7 16,6 147,14 95,-18 -36,-22 -164,-75 -163,-96 1,-12 -21,-28 -25,-41 -18,-52 34,-8 44,4 22,26 77,8 105,1 71,-42 159,-20 231,-96 19,-21 18,-47 52,-47 77,0 104,-62 168,-77 34,-8 47,26 74,35 50,18 98,2 129,34 34,34 59,68 108,80 17,67 -124,121 -124,146 6,2 60,5 29,24 -86,54 48,101 92,90 0,-25 -47,-66 17,-66 57,0 80,-20 101,-73 128,-37 281,-5 412,-5 21,0 171,-27 91,-54 -68,-23 -119,7 -185,7 83,-67 125,-170 199,-246 77,-79 258,-71 366,-128 96,-16 185,-6 291,-6 54,0 100,4 139,43 18,18 54,88 76,88 0,-54 65,-66 46,-93 -33,-46 10,-61 10,-109 0,-99 75,40 122,-40 30,-51 -37,-78 46,-59 23,5 82,14 94,-15 24,-58 40,-88 81,-18 47,81 73,-15 82,-24 5,-14 8,-57 22,-57 20,0 40,3 60,2 20,-1 97,-29 73,14 -25,45 -30,89 -43,137 -13,50 -8,86 26,125 11,23 41,36 9,49 -23,9 -24,40 -8,57 33,36 -36,66 19,86 18,6 79,-10 81,13l12 120c3,30 -14,60 -14,93 16,0 37,-39 54,-47 42,-19 87,1 113,-41 10,-17 8,-42 15,-62 4,-10 10,-68 19,-68 2,-5 18,6 20,7 47,29 147,27 201,45 0,41 -156,-2 -94,121 14,27 24,59 41,84 24,36 55,38 85,62 55,20 141,22 171,80 21,40 16,80 16,125 12,-4 48,-54 57,-67 12,-17 -13,-44 -17,-66 -9,-49 -17,-99 -33,-146 -12,-38 -26,-68 -21,-106 32,-51 10,-34 68,-8 16,7 5,-63 3,-74l-38 -162c-3,-12 18,-96 25,-96 77,0 27,-72 78,-111 15,-11 23,-74 39,-34 11,27 40,59 47,80l2 0c9,-37 37,-32 17,-81 -16,-39 -17,-56 -11,-94 2,0 1,1 2,-1 34,9 49,122 116,88 46,-23 84,159 176,85 44,-35 53,-64 120,-64 56,0 114,16 171,16 38,-2 72,17 109,17 0,19 -27,28 7,47 21,12 89,91 94,91 62,4 44,-24 97,26 47,44 130,-62 187,-36 4,2 4,48 7,58 7,21 60,98 82,98 43,0 59,-109 137,-91 31,7 47,114 73,147 21,5 42,17 63,21 26,4 54,-14 88,-7 54,10 98,-143 124,-178 -32,0 -53,-4 -85,-10 -58,-12 3,-79 3,-122 0,-54 -27,-122 -13,-169 19,-15 21,-29 46,-39 54,-22 145,-43 145,-120 0,-85 -5,-116 -38,-195 -17,-40 -57,-31 -93,-23 -93,19 7,-62 -81,-84 -42,-11 -6,-31 2,-54 12,-33 19,-89 19,-124 -17,-95 -17,-50 -69,-47 -54,3 -40,-45 -60,-81 -43,-81 16,-41 57,-46 38,-4 76,-39 116,-49 25,-6 52,22 76,27 57,12 -46,-44 45,-58 42,-6 99,-25 77,-71 -37,-78 81,-18 92,-90 5,-30 37,-10 56,-18 20,-8 26,-54 36,-57l1 -3c63,0 54,-53 112,-7 42,34 105,-5 148,2 25,123 76,200 213,188 26,0 114,-16 82,35 -44,72 -67,151 59,156 37,1 173,0 194,-28 32,-43 -36,-117 39,-120 71,-3 252,-100 314,-144 85,-60 101,-73 207,-49 34,3 71,50 86,35 23,-24 25,-63 53,-82 79,-55 68,137 126,52l189 -276c20,-29 32,-46 63,-46 53,0 101,130 98,176 -3,40 -71,134 -7,121 78,-15 46,163 26,206 -20,42 -119,152 -119,189 69,0 151,-207 178,-254 31,-53 36,-125 74,-174 16,-22 41,-10 63,-10 29,0 42,-53 55,-75 60,-35 81,-28 144,-46 67,-19 62,-15 102,-68 37,-49 88,-27 139,-39 34,-8 78,-41 110,-41 0,45 14,26 57,35 17,3 35,38 35,53 0,2 -124,-22 -70,32 23,23 34,69 34,102 0,41 -103,119 -23,139 20,5 68,-2 52,28l-53 100c1,-2 2,-2 4,-2l-48 127c-34,89 -18,180 -99,237 -28,20 -85,33 -76,74 8,38 -3,71 -3,106l115 -34c15,-4 70,-192 70,-218 0,-122 69,-282 197,-314 12,-3 51,-24 51,-1 0,64 36,66 81,22 25,-24 203,-26 199,-6 -8,41 -58,108 9,136 133,56 -38,51 -64,99 -27,49 -65,21 -61,88 2,29 65,35 89,35 0,11 -69,19 -80,51 -6,17 80,80 98,85 26,6 48,-10 74,-2 26,9 52,38 77,44 25,-6 50,7 76,6 24,-1 97,-7 116,-18 25,-14 36,-40 61,-54 5,-3 35,70 48,86 19,23 71,42 100,49 -9,38 -102,63 -62,118 20,27 41,69 18,102 -13,19 -64,31 -65,49 0,7 14,44 17,53 20,61 99,-59 99,70 20,54 67,81 105,120 42,44 98,20 149,20 18,0 14,79 19,94 21,71 4,138 88,166 50,17 95,-40 109,-21 35,49 109,80 109,138 0,40 40,14 61,29 21,15 26,60 29,83l29 224c7,53 42,94 31,151 -6,32 -26,65 -28,97 0,7 129,101 148,108 33,12 132,-5 132,37 44,107 76,127 194,172l193 74c18,7 -28,59 -24,93 4,31 6,48 6,80 0,51 85,18 48,65 -40,50 14,81 47,118 4,26 126,241 147,252 64,34 53,-1 9,-31 -38,-26 -15,-46 6,-67 59,-62 34,-106 12,-185 -12,-43 -47,-92 2,-113 113,-48 52,15 132,71 34,24 136,-6 188,7 -18,-75 -7,-115 52,-170 66,-62 100,-57 150,-144 33,-35 170,-142 175,-185 7,-64 71,-75 103,-123 19,-28 -2,-89 48,-77 157,37 378,-125 494,-218 82,-59 80,-104 -18,-130 -17,-4 -127,-55 -79,-90 20,-15 158,-44 189,-49 179,-31 254,4 254,177 34,0 -6,-74 47,-88l113 -30c52,-14 78,-91 155,-113 88,-25 159,-57 234,-113 49,-33 49,-50 33,-106 -12,-41 53,-58 63,-90 10,2 49,51 51,62 11,59 -39,87 49,113 23,7 47,9 72,10 46,2 75,-8 40,37 -36,47 -90,105 -115,160 -27,57 -19,115 -73,156 -53,33 -104,71 -140,119 15,15 75,-6 93,23 9,15 31,87 68,58 15,-12 76,-125 81,-144l2 0c13,52 52,37 77,8 16,-18 -1,-50 20,-78 44,-62 181,-119 259,-119 9,38 -83,82 -34,135 10,11 48,42 52,51 11,28 -17,56 -6,87 14,50 66,28 100,48 40,24 -8,120 57,163 30,20 37,74 41,107 2,14 28,76 36,58 19,-40 89,-104 90,-143 2,-52 -17,-105 -17,-157 99,75 55,83 71,187 3,18 12,164 56,138 29,-17 113,-89 124,-119 5,-13 -128,-83 -88,-110 36,-25 21,-93 74,-105 68,-17 108,7 165,23 21,6 58,-34 41,-38l-153 -41c-2,-1 33,-32 47,-41 31,-20 -15,-46 -15,-75 0,-14 100,-95 115,-105 82,-57 63,-21 137,9 61,18 61,35 126,18 96,-25 168,-71 206,43 17,51 83,43 125,54 73,19 3,139 43,183 18,19 68,-3 58,41 -11,45 5,72 23,113 25,36 47,16 80,30 24,10 30,25 49,43 13,13 46,31 20,40 -15,5 -102,36 -98,50 3,12 20,15 22,28 7,39 -1,27 39,35 27,5 30,52 33,76 3,35 48,51 48,80 27,32 19,22 58,22 32,0 51,46 51,73 0,45 -51,76 -57,120 -4,28 19,51 10,72 -12,28 -18,47 -18,76 31,6 61,-80 65,-105 9,-54 40,-56 71,-95 -12,-12 -41,9 -49,-18 -16,-53 102,-180 3,-180 -62,0 -48,-44 -30,-80 11,-21 19,-34 10,-57 -11,-32 -47,-45 -54,-67 -11,-19 -54,-95 -31,-114 41,-33 92,52 113,76 8,10 67,20 69,5 2,-15 -62,-34 -62,-49 27,-5 17,-50 17,-69 -25,0 -36,48 -74,1 -27,-34 -74,-77 -108,-25 -67,100 -22,-102 -80,-73 -90,45 0,-89 -9,-125 -26,0 -71,25 -71,-28 0,-44 38,-137 -24,-165 -24,-11 -48,-2 -68,-17 -5,-3 -7,-88 -7,-103 0,-76 16,-55 82,-64 71,-10 153,-59 191,-119 50,-78 -7,-97 -7,-162 32,0 46,16 81,0 27,-12 76,-56 97,-13 20,41 59,9 91,1 -42,0 -61,-38 -61,-77 42,-10 103,13 133,-29 39,-55 -4,-48 41,-7 17,16 58,1 79,7 33,9 43,64 100,48 42,-12 71,-59 124,-77 30,-7 66,7 89,-11 38,-30 92,-22 118,-43 15,-12 43,-69 64,-74 0,63 -30,91 -16,157 12,56 25,78 54,125 25,41 -24,20 -48,65 -17,32 -33,51 -70,63 -61,19 -32,35 -48,85 -18,57 -25,76 -25,140 52,111 75,173 185,246 125,84 297,105 453,106 123,39 310,18 437,5l278 -29c94,-10 182,-49 273,-60 90,-33 192,-64 296,-84l0 0 20 87c20,54 113,71 150,117 62,77 23,115 23,206l-3 11c21,15 49,21 68,40 25,24 61,97 45,131 -15,31 -77,49 -61,95 8,25 33,45 52,64 28,28 20,93 35,131 20,49 81,78 102,131 10,47 43,61 57,100 11,31 16,79 18,111 3,56 10,50 52,63 30,9 55,30 86,40 55,17 100,-26 155,8 70,44 64,124 103,188 28,47 177,28 234,49 132,13 140,6 250,-75 66,-48 41,-110 120,-142 97,-39 30,-58 68,-127 14,-26 85,-10 114,-19 58,-18 90,-83 151,-83 67,0 74,-87 103,-132 8,-92 16,-179 120,-201 72,-15 119,50 203,26 137,-39 97,83 208,89 37,2 94,-26 126,-3 26,19 57,66 82,78 4,5 6,10 12,11 66,93 188,-84 266,19 67,88 174,40 268,87l0 0zm-26792 -3833l27672 0 0 15707 -27672 0 0 -15707z"/>
  <polygon class="fil5 str2" points="1596,14884 4520,14884 4520,16477 1596,16477 "/>
  <path class="fil6" d="M1213 16377c0,-17 4,-34 13,-51 9,-17 22,-30 38,-39 17,-9 34,-14 52,-14 18,0 35,5 52,14 17,9 29,22 39,38 9,17 14,34 14,52 0,18 -5,35 -14,52 -9,17 -22,29 -39,39 -17,9 -34,14 -52,14 -18,0 -35,-5 -52,-14 -17,-9 -30,-22 -38,-39 -9,-17 -13,-34 -13,-51zm17 0c0,15 4,29 11,43 7,14 18,25 32,32 14,8 28,12 43,12 15,0 29,-4 43,-12 14,-8 24,-18 32,-32 8,-14 12,-28 12,-43 0,-15 -4,-29 -12,-43 -8,-14 -18,-25 -32,-32 -14,-8 -28,-11 -43,-11 -15,0 -30,4 -43,12 -14,8 -25,19 -32,32 -7,14 -11,28 -11,43zm104 -33l5 -17c12,3 21,9 28,18 7,9 10,20 10,33 0,16 -5,29 -16,39 -10,10 -25,15 -44,15 -12,0 -23,-2 -32,-7 -9,-5 -16,-11 -20,-20 -5,-9 -7,-18 -7,-29 0,-12 3,-22 9,-30 6,-8 14,-14 24,-17l4 16c-7,3 -12,7 -16,12 -4,5 -6,12 -6,19 0,11 4,19 11,26 8,7 18,10 32,10 14,0 25,-3 32,-10 7,-6 11,-15 11,-25 0,-8 -2,-16 -7,-22 -5,-6 -11,-10 -20,-12z"/>
  <path id="1" class="fil6" d="M1419 16082l-19 0c14,9 22,23 22,41 0,12 -3,22 -10,32 -6,10 -15,17 -27,23 -12,5 -25,8 -40,8 -15,0 -28,-2 -40,-7 -12,-5 -21,-12 -27,-22 -6,-10 -10,-21 -10,-33 0,-9 2,-17 6,-24 4,-7 9,-12 15,-17l-73 0 0 -25 202 0 0 23zm-73 78c19,0 33,-4 42,-12 9,-8 14,-17 14,-28 0,-11 -4,-20 -13,-28 -9,-8 -22,-11 -41,-11 -20,0 -35,4 -44,12 -9,8 -14,17 -14,29 0,11 4,20 13,28 9,7 23,11 42,11z"/>
  <polygon id="2" class="fil6" points="1358,16030 1333,16030 1333,15953 1358,15953 "/>
  <path id="3" class="fil6" d="M1419 15926l-146 0 0 -22 21 0c-7,-5 -13,-11 -17,-18 -4,-8 -7,-16 -7,-26 0,-11 2,-20 7,-27 5,-7 11,-12 19,-15 -17,-12 -26,-27 -26,-45 0,-15 4,-26 12,-34 8,-8 20,-12 37,-12l100 0 0 25 -92 0c-10,0 -17,1 -21,2 -4,2 -8,5 -11,9 -3,4 -4,9 -4,15 0,10 3,19 10,26 7,7 18,10 33,10l85 0 0 25 -95 0c-11,0 -19,2 -25,6 -6,4 -8,11 -8,20 0,7 2,13 6,19 4,6 9,10 16,13 7,3 17,4 31,4l76 0 0 25z"/>
  <path id="4" class="fil6" d="M1400 15595c8,9 13,18 17,27 3,9 5,18 5,27 0,16 -4,28 -12,37 -8,9 -18,13 -30,13 -7,0 -14,-2 -20,-5 -6,-3 -11,-8 -14,-13 -4,-5 -6,-11 -8,-18 -1,-5 -2,-12 -4,-22 -2,-20 -5,-35 -9,-44 -3,0 -6,0 -6,0 -10,0 -17,2 -21,7 -6,6 -8,16 -8,28 0,12 2,20 6,26 4,6 11,10 22,12l-3 24c-10,-2 -19,-6 -25,-11 -6,-5 -11,-12 -15,-22 -3,-10 -5,-21 -5,-33 0,-13 1,-23 4,-31 3,-8 7,-14 11,-17 4,-4 10,-6 17,-8 4,-1 12,-1 23,-1l33 0c23,0 38,-1 44,-2 6,-1 12,-3 18,-6l0 26c-5,3 -11,4 -18,5zm-55 2c4,9 7,23 9,41 1,10 3,17 5,22 2,4 5,7 8,10 4,2 7,3 12,3 7,0 12,-2 16,-8 4,-5 7,-12 7,-22 0,-10 -2,-18 -6,-26 -4,-7 -10,-13 -17,-16 -6,-3 -14,-4 -25,-4l-9 0z"/>
  <path id="5" class="fil6" d="M1475 15534l-203 0 0 -23 19 0c-7,-5 -13,-11 -17,-18 -4,-7 -6,-15 -6,-24 0,-13 3,-24 10,-33 6,-10 15,-17 27,-22 12,-5 25,-7 38,-7 15,0 28,3 40,8 12,5 21,13 28,23 6,10 10,21 10,32 0,8 -2,16 -5,22 -3,7 -8,12 -13,16l71 0 0 25zm-129 -23c19,0 33,-4 42,-11 9,-8 13,-17 13,-28 0,-11 -5,-20 -14,-28 -9,-8 -24,-12 -43,-12 -19,0 -33,4 -42,11 -9,8 -14,17 -14,27 0,11 5,20 15,28 10,8 24,12 43,12z"/>
  <path id="6" class="fil6" d="M1375 15387l-4 -25c10,-1 17,-5 23,-12 5,-6 8,-15 8,-26 0,-11 -2,-20 -7,-25 -5,-6 -10,-8 -16,-8 -6,0 -10,3 -13,7 -2,3 -5,12 -8,25 -5,18 -9,31 -12,38 -3,7 -8,12 -14,16 -6,4 -12,5 -20,5 -7,0 -13,-2 -18,-4 -6,-3 -10,-7 -14,-12 -3,-4 -5,-9 -7,-16 -2,-7 -3,-14 -3,-21 0,-11 2,-22 5,-30 3,-9 8,-15 13,-19 6,-4 13,-7 23,-9l3 24c-8,1 -14,4 -18,10 -4,5 -6,13 -6,22 0,11 2,19 6,24 4,5 8,7 13,7 3,0 6,-1 9,-3 3,-2 5,-5 7,-10 1,-3 3,-10 6,-22 5,-18 9,-30 11,-37 3,-7 7,-12 13,-16 6,-4 13,-6 21,-6 8,0 16,2 23,7 7,5 13,12 17,21 4,9 6,19 6,31 0,19 -4,34 -12,44 -8,10 -20,16 -35,19z"/>
  <polygon id="7" class="fil6" points="1419,15229 1391,15229 1391,15200 1419,15200 "/>
  <path id="8" class="fil6" d="M1365 15062l3 -24c17,3 30,9 39,20 9,11 14,24 14,40 0,20 -7,36 -20,48 -13,12 -32,18 -56,18 -16,0 -30,-3 -41,-8 -12,-5 -21,-13 -27,-24 -6,-11 -9,-22 -9,-35 0,-16 4,-29 12,-39 8,-10 19,-17 34,-19l4 24c-10,2 -17,6 -22,12 -5,6 -7,13 -7,21 0,13 4,23 13,31 9,8 23,12 42,12 20,0 34,-4 43,-11 9,-8 13,-17 13,-29 0,-10 -3,-18 -9,-24 -6,-7 -15,-11 -27,-12z"/>
  <path id="9" class="fil6" d="M1345 15025c-27,0 -47,-8 -60,-23 -11,-13 -16,-28 -16,-46 0,-20 7,-37 20,-49 13,-13 31,-19 55,-19 19,0 34,3 44,8 11,6 19,14 25,25 6,11 9,23 9,35 0,21 -7,37 -20,50 -13,13 -32,19 -57,19zm0 -25c19,0 33,-4 42,-12 9,-8 14,-19 14,-31 0,-12 -5,-23 -14,-31 -9,-8 -24,-12 -43,-12 -18,0 -32,4 -41,12 -9,8 -14,18 -14,31 0,12 5,23 14,31 9,8 23,12 42,12z"/>
  <path id="10" class="fil6" d="M1419 14859l-146 0 0 -22 21 0c-7,-5 -13,-11 -17,-18 -4,-8 -7,-16 -7,-26 0,-11 2,-20 7,-27 5,-7 11,-12 19,-15 -17,-12 -26,-27 -26,-45 0,-15 4,-26 12,-34 8,-8 20,-12 37,-12l100 0 0 25 -92 0c-10,0 -17,1 -21,2 -4,2 -8,5 -11,9 -3,4 -4,9 -4,15 0,10 3,19 10,26 7,7 18,10 33,10l85 0 0 25 -95 0c-11,0 -19,2 -25,6 -6,4 -8,11 -8,20 0,7 2,13 6,19 4,6 9,10 16,13 7,3 17,4 31,4l76 0 0 25z"/>
  <g id="_2315379874544">
   <g>
    <polygon class="fil7 str0" points="1737,15486 2570,15486 2570,15585 1737,15585 "/>
    <polygon class="fil8 str0" points="2570,15486 3403,15486 3403,15585 2570,15585 "/>
    <polygon class="fil7 str0" points="3403,15486 4236,15486 4236,15585 3403,15585 "/>
    <polygon class="fil7 str0" points="3072,15785 4405,15785 4405,15884 3072,15884 "/>
    <polygon class="fil8 str0" points="1740,15785 3072,15785 3072,15884 1740,15884 "/>
   </g>
   <path class="fil9" d="M2576 15119c7,-16 15,-28 25,-37 10,-9 23,-13 38,-13 19,0 33,6 43,18 8,9 11,19 11,29 0,17 -11,35 -32,53 14,6 25,14 33,24 7,10 11,23 11,37 0,20 -6,38 -19,53 -17,19 -41,29 -73,29 -16,0 -26,-2 -32,-6 -6,-4 -9,-8 -9,-13 0,-3 1,-6 4,-9 3,-3 6,-4 10,-4 3,0 6,0 9,1 2,1 6,3 13,6 7,4 12,6 14,7 4,1 9,2 14,2 12,0 22,-5 31,-14 9,-9 13,-20 13,-32 0,-9 -2,-18 -6,-27 -3,-6 -6,-11 -10,-15 -5,-5 -12,-9 -20,-13 -9,-4 -17,-6 -26,-6l-6 0 0 -5c9,-1 18,-4 27,-10 9,-5 16,-12 20,-19 4,-8 6,-16 6,-25 0,-12 -4,-21 -11,-29 -7,-7 -17,-11 -28,-11 -18,0 -33,10 -45,29l-6 -3z"/>
   <path id="1" class="fil9" d="M2748 15193c0,-27 4,-50 12,-69 8,-19 19,-34 32,-43 10,-7 21,-11 32,-11 18,0 34,9 48,27 18,23 27,53 27,92 0,27 -4,50 -12,69 -8,19 -18,33 -30,41 -12,9 -24,13 -35,13 -22,0 -41,-13 -56,-39 -13,-22 -19,-49 -19,-80zm34 4c0,32 4,58 12,79 7,17 16,26 29,26 6,0 13,-3 19,-8 7,-6 12,-15 15,-28 5,-20 8,-48 8,-83 0,-27 -3,-49 -8,-67 -4,-13 -9,-23 -16,-28 -5,-4 -10,-6 -17,-6 -8,0 -15,4 -21,11 -8,10 -14,24 -17,45 -3,20 -4,41 -4,60z"/>
   <path id="2" class="fil9" d="M3057 15063l0 157 40 -37c9,-8 13,-13 15,-15 1,-1 1,-3 1,-4 0,-2 -1,-4 -3,-6 -2,-2 -5,-3 -9,-3l0 -6 69 0 0 6c-9,0 -17,2 -23,4 -6,3 -13,7 -21,14l-41 37 40 51c11,14 19,23 23,27 6,5 10,9 15,10 3,1 8,2 15,2l0 6 -77 0 0 -6c4,0 7,-1 9,-2 2,-1 2,-3 2,-5 0,-3 -2,-7 -7,-13l-48 -62 0 52c0,10 1,17 2,20 1,3 3,5 6,7 3,1 8,2 17,2l0 6 -80 0 0 -6c8,0 14,-1 18,-3 2,-1 4,-3 5,-6 2,-4 3,-10 3,-20l0 -144c0,-18 0,-29 -1,-33 -1,-4 -2,-7 -4,-8 -2,-2 -4,-2 -7,-2 -2,0 -6,1 -11,3l-3 -6 47 -19 8 0z"/>
   <path id="3" class="fil9" d="M3234 15179c11,-12 18,-18 20,-20 5,-4 11,-8 17,-10 6,-2 12,-4 18,-4 10,0 18,3 25,9 7,6 12,14 14,25 12,-14 22,-23 30,-27 8,-4 17,-6 25,-6 8,0 16,2 22,6 6,4 12,11 15,21 3,7 4,17 4,31l0 68c0,10 1,17 2,20 1,2 3,5 6,6 3,2 8,3 15,3l0 6 -77 0 0 -6 3 0c7,0 12,-1 16,-4 3,-2 5,-5 6,-9 0,-2 1,-7 1,-17l0 -68c0,-13 -2,-22 -5,-27 -5,-7 -12,-11 -22,-11 -6,0 -12,2 -18,5 -6,3 -14,9 -22,17l0 2 1 7 0 75c0,11 1,17 2,20 1,3 3,5 7,7 3,2 9,3 17,3l0 6 -79 0 0 -6c9,0 15,-1 18,-3 3,-2 5,-5 7,-9 1,-2 1,-8 1,-17l0 -68c0,-13 -2,-22 -6,-28 -5,-7 -12,-11 -21,-11 -6,0 -12,2 -18,5 -9,5 -17,11 -22,17l0 85c0,10 1,17 2,20 1,3 4,5 6,7 3,2 8,2 17,2l0 6 -78 0 0 -6c7,0 12,-1 15,-2 3,-2 5,-4 7,-7 1,-3 2,-10 2,-20l0 -60c0,-17 -1,-28 -2,-34 -1,-4 -2,-6 -4,-8 -2,-1 -4,-2 -7,-2 -3,0 -7,1 -12,3l-3 -6 48 -19 7 0 0 34z"/>
   <path class="fil9" d="M2844 16233l-16 45 -138 0 0 -6c41,-37 69,-67 86,-91 17,-23 25,-45 25,-64 0,-15 -5,-27 -14,-37 -9,-10 -20,-14 -33,-14 -12,0 -22,3 -31,10 -9,7 -16,16 -20,29l-6 0c3,-21 10,-37 22,-49 12,-11 27,-17 45,-17 19,0 35,6 48,18 13,12 19,27 19,43 0,12 -3,24 -8,36 -8,19 -22,38 -41,59 -29,31 -46,50 -53,56l60 0c12,0 21,0 26,-1 5,-1 9,-3 13,-6 4,-3 7,-7 10,-12l7 0z"/>
   <path id="1" class="fil9" d="M2871 16163c0,-27 4,-50 12,-69 8,-19 19,-34 32,-43 10,-7 21,-11 32,-11 18,0 34,9 48,27 18,23 27,53 27,92 0,27 -4,50 -12,69 -8,19 -18,33 -30,41 -12,9 -24,13 -35,13 -22,0 -41,-13 -56,-39 -13,-22 -19,-49 -19,-80zm34 4c0,32 4,58 12,79 7,17 16,26 29,26 6,0 13,-3 19,-8 7,-6 12,-15 15,-28 5,-20 8,-48 8,-83 0,-27 -3,-49 -8,-67 -4,-13 -9,-23 -16,-28 -5,-4 -10,-6 -17,-6 -8,0 -15,4 -21,11 -8,10 -14,24 -17,45 -3,20 -4,41 -4,60z"/>
   <path id="2" class="fil9" d="M3181 16149c11,-12 18,-18 20,-20 5,-4 11,-8 17,-10 6,-2 12,-4 18,-4 10,0 18,3 25,9 7,6 12,14 14,25 12,-14 22,-23 30,-27 8,-4 17,-6 25,-6 8,0 16,2 22,6 6,4 12,11 15,21 3,7 4,17 4,31l0 68c0,10 1,17 2,20 1,2 3,5 6,6 3,2 8,3 15,3l0 6 -77 0 0 -6 3 0c7,0 12,-1 16,-4 3,-2 5,-5 6,-9 0,-2 1,-7 1,-17l0 -68c0,-13 -2,-22 -5,-27 -5,-7 -12,-11 -22,-11 -6,0 -12,2 -18,5 -6,3 -14,9 -22,17l0 2 1 7 0 75c0,11 1,17 2,20 1,3 3,5 7,7 3,2 9,3 17,3l0 6 -79 0 0 -6c9,0 15,-1 18,-3 3,-2 5,-5 7,-9 1,-2 1,-8 1,-17l0 -68c0,-13 -2,-22 -6,-28 -5,-7 -12,-11 -21,-11 -6,0 -12,2 -18,5 -9,5 -17,11 -22,17l0 85c0,10 1,17 2,20 1,3 4,5 6,7 3,2 8,2 17,2l0 6 -78 0 0 -6c7,0 12,-1 15,-2 3,-2 5,-4 7,-7 1,-3 2,-10 2,-20l0 -60c0,-17 -1,-28 -2,-34 -1,-4 -2,-6 -4,-8 -2,-1 -4,-2 -7,-2 -3,0 -7,1 -12,3l-3 -6 48 -19 7 0 0 34z"/>
   <path id="3" class="fil9" d="M3449 16033c5,0 9,2 12,5 3,3 5,8 5,12 0,5 -2,9 -5,12 -3,3 -8,5 -12,5 -5,0 -9,-2 -12,-5 -3,-3 -5,-8 -5,-12 0,-5 2,-9 5,-12 3,-3 8,-5 13,-5zm14 83l0 127c0,10 1,16 2,20 1,3 4,6 6,7 3,2 8,2 15,2l0 6 -77 0 0 -6c8,0 13,-1 15,-2 3,-1 5,-4 6,-7 2,-3 2,-10 2,-20l0 -61c0,-17 -1,-28 -2,-33 -1,-4 -2,-6 -4,-8 -2,-1 -4,-2 -7,-2 -3,0 -7,1 -12,3l-2 -6 47 -19 8 0z"/>
  </g>
  <rect class="fil10 str3" x="1000" y="1000" width="27672" height="15707"/>
  <g id="_2315379868208">
   <polygon class="fil5 str2" points="4665,14880 5481,14880 5481,16473 4665,16473 "/>
   <path class="fil11" d="M5013 15317c-1,3 -2,6 -2,9 0,3 -1,5 -1,7 0,6 2,10 5,12 3,2 10,3 18,3l4 0 -5 23 -78 0 5 -23 3 0c7,0 13,-2 16,-5 4,-3 6,-8 8,-16l38 -154c1,-3 1,-6 2,-8 0,-3 1,-6 1,-9 0,-5 -2,-9 -6,-11 -4,-2 -11,-3 -20,-3l-3 0 5 -23 72 0 62 184 31 -129c1,-4 2,-8 2,-10 0,-3 1,-5 1,-6 0,-6 -2,-10 -5,-12 -4,-2 -10,-3 -18,-3l-4 0 5 -23 79 0 -6 23 -3 0c-7,0 -13,2 -16,5 -4,3 -6,8 -8,16l-51 208 -22 0 -72 -209 -37 155z"/>
   <line class="fil10 str4" x1="5073" y1="16340" x2="5073" y2= "15571" />
   <line class="fil10 str4" x1="4791" y1="16064" x2="5354" y2= "16064" />
   <line class="fil10 str4" x1="4928" y1="16204" x2="5223" y2= "15917" />
   <line class="fil10 str4" x1="4925" y1="15917" x2="5223" y2= "16206" />
   <line class="fil10 str4" x1="5073" y1="15574" x2="4978" y2= "15692" />
   <line class="fil10 str4" x1="5074" y1="15574" x2="5162" y2= "15692" />
  </g>
  <g id="_2315379856816">
   <polygon class="fil5 str2" points="8247,16004 8247,16478 5998,16478 5998,16004 "/>
   <polygon class="fil11" points="7075,16342 7075,16140 7102,16140 7102,16319 7201,16319 7201,16342 "/>
   <path id="1" class="fil11" d="M7326 16324c-9,8 -18,13 -27,17 -9,3 -18,5 -27,5 -16,0 -28,-4 -37,-12 -9,-8 -13,-18 -13,-30 0,-7 2,-14 5,-20 3,-6 8,-11 13,-14 5,-4 11,-6 18,-8 5,-1 12,-2 22,-4 20,-2 35,-5 44,-9 0,-3 0,-6 0,-6 0,-10 -2,-17 -7,-21 -6,-6 -16,-8 -28,-8 -12,0 -20,2 -26,6 -6,4 -10,11 -12,22l-24 -3c2,-10 6,-19 11,-25 5,-6 12,-11 22,-15 10,-3 21,-5 33,-5 13,0 23,1 31,4 8,3 14,7 17,11 4,4 6,10 8,17 1,4 1,12 1,23l0 33c0,23 1,38 2,44 1,6 3,12 6,18l-26 0c-3,-5 -4,-11 -5,-18zm-2 -55c-9,4 -23,7 -41,9 -10,1 -17,3 -22,5 -4,2 -7,5 -10,8 -2,4 -3,7 -3,12 0,7 2,12 8,16 5,4 12,7 22,7 10,0 18,-2 26,-6 7,-4 13,-10 16,-17 3,-6 4,-14 4,-25l0 -9z"/>
   <path id="2" class="fil11" d="M7387 16342l0 -146 22 0 0 21c5,-7 11,-13 18,-17 8,-4 16,-7 26,-7 11,0 20,2 27,7 7,5 12,11 15,19 12,-17 27,-26 45,-26 15,0 26,4 34,12 8,8 12,20 12,37l0 100 -25 0 0 -92c0,-10 -1,-17 -2,-21 -2,-4 -5,-8 -9,-11 -4,-3 -9,-4 -15,-4 -10,0 -19,3 -26,10 -7,7 -10,18 -10,33l0 85 -25 0 0 -95c0,-11 -2,-19 -6,-25 -4,-6 -11,-8 -20,-8 -7,0 -13,2 -19,6 -6,4 -10,9 -13,16 -3,7 -4,17 -4,31l0 76 -25 0z"/>
   <path id="3" class="fil11" d="M7645 16342l-23 0 0 -202 25 0 0 72c10,-13 24,-20 40,-20 9,0 18,2 26,5 8,4 15,9 20,15 5,7 9,14 12,24 3,9 4,19 4,30 0,25 -6,44 -19,58 -12,14 -27,21 -45,21 -17,0 -31,-7 -41,-22l0 18zm0 -74c0,18 2,30 7,38 8,13 18,19 32,19 11,0 20,-5 28,-14 8,-9 12,-23 12,-42 0,-19 -4,-33 -11,-42 -8,-9 -17,-14 -27,-14 -11,0 -20,5 -28,14 -8,9 -12,23 -12,41z"/>
   <path id="4" class="fil11" d="M7879 16295l26 3c-4,15 -11,27 -22,35 -11,8 -25,12 -42,12 -21,0 -38,-7 -51,-20 -13,-13 -19,-32 -19,-55 0,-25 6,-44 19,-57 13,-14 29,-20 49,-20 20,0 35,7 48,20 12,13 19,32 19,56 0,1 0,4 0,7l-109 0c1,16 5,28 14,37 8,9 18,13 31,13 9,0 17,-2 23,-7 6,-5 12,-12 15,-23zm-81 -40l82 0c-1,-12 -4,-22 -9,-28 -8,-10 -18,-14 -31,-14 -11,0 -21,4 -29,11 -8,8 -12,18 -13,31z"/>
   <path id="5" class="fil11" d="M7936 16342l0 -146 22 0 0 22c6,-10 11,-17 16,-21 5,-3 10,-5 16,-5 8,0 17,3 26,8l-9 23c-6,-3 -12,-5 -18,-5 -5,0 -10,2 -15,5 -4,3 -7,8 -9,14 -3,9 -4,18 -4,29l0 77 -25 0z"/>
   <path id="6" class="fil11" d="M8084 16320l3 22c-7,1 -13,2 -19,2 -9,0 -16,-1 -21,-4 -5,-3 -8,-7 -10,-11 -2,-5 -3,-14 -3,-29l0 -84 -18 0 0 -19 18 0 0 -36 25 -15 0 51 25 0 0 19 -25 0 0 86c0,7 0,12 1,14 1,2 2,4 4,5 2,1 5,2 8,2 3,0 6,0 11,-1z"/>
   <circle class="fil12 str5" cx="6217" cy="16237" r="119"/>
   <rect class="fil12 str5" x="6675" y="16129" width="227" height="227"/>
   <g>
    <line class="fil10 str6" x1="6391" y1="16236" x2="6611" y2= "16236" />
    <line class="fil10 str6" x1="6608" y1="16237" x2="6544" y2= "16302" />
    <line class="fil10 str6" x1="6608" y1="16236" x2="6545" y2= "16174" />
   </g>
  </g>
 </g>
</svg>
